<?xml version="1.0" encoding="UTF-8"?>
<svg width="32mm" height="32mm" version="1.1" viewBox="0 0 32 32" xml:space="preserve" xmlns="http://www.w3.org/2000/svg" xmlns:xlink="http://www.w3.org/1999/xlink"><defs><linearGradient id="a" x2="1" gradientTransform="matrix(833.59 0 0 149.46 3418.1 990.4)" gradientUnits="userSpaceOnUse"><stop stop-color="#f5ee30" offset="0"/><stop stop-color="#3bb549" offset="1"/></linearGradient><linearGradient id="e" x1=".26772" x2="-.14642" y1="-4.5913" y2=".2557" gradientTransform="matrix(833.59 0 0 149.46 3418.1 990.4)" gradientUnits="userSpaceOnUse" xlink:href="#a"/><linearGradient id="d" x1=".78792" x2=".55542" y1="-.49974" y2="-4.7571" gradientTransform="matrix(833.59 0 0 149.46 3418.1 990.4)" gradientUnits="userSpaceOnUse" xlink:href="#a"/><linearGradient id="c" x2="1" gradientTransform="matrix(833.59 0 0 149.46 3418.1 990.4)" gradientUnits="userSpaceOnUse" xlink:href="#a"/><linearGradient id="b" x1=".68483" x2=".0051649" y1="2.2249" y2="-3.2205" gradientTransform="matrix(416.79 721.91 -129.44 74.73 3786.6 243.29)" gradientUnits="userSpaceOnUse"><stop stop-color="#f1592a" offset="0"/><stop stop-color="#f5e732" offset="1"/></linearGradient></defs><g transform="translate(-1210.3 -196)"><g transform="matrix(.02926 0 0 .02926 1115.5 193.58)" clip-rule="evenodd" fill-rule="evenodd" stroke-linejoin="round" stroke-miterlimit="2" stroke-width="16.032"><path d="m3684.1 185.15h205.06l-512.64 888.58-102.53-170.88z" fill="url(#e)" stop-color="#000000" stroke-linejoin="miter" stroke-miterlimit="2" stroke-width="16.032" style="-inkscape-stroke:none;font-variation-settings:normal"/><path d="m4299.2 902.85-102.53 170.88-512.64-888.58 205.06-1.5e-4z" clip-rule="evenodd" fill="url(#d)" fill-rule="evenodd" stop-color="#000000" stroke-linejoin="miter" stroke-miterlimit="2" stroke-width="16.032" style="-inkscape-stroke:none;font-variation-settings:normal"/><path d="m4299.2 902.85-102.53 170.88h102.85-923.07l98.585-170.88z" fill="url(#c)" stroke-width="16.032"/><path d="m3684.1 800.32h205.06v205.06h-205.06zm0-68.352v-478.46h205.06v478.46z" fill="url(#b)" stop-color="#000000" stroke-linejoin="round" stroke-miterlimit="2" stroke-width="16.032" style="-inkscape-stroke:none;font-variation-settings:normal"/><rect transform="matrix(4.272 0 0 4.272 3239.8 82.622)" x="-8.2421e-7" y="-1.0518e-16" width="256" height="256" clip-rule="evenodd" fill="none"/></g></g></svg>
