<?xml version="1.0" encoding="UTF-8"?>
<svg width="32mm" height="32mm" version="1.1" viewBox="0 0 32 32" xml:space="preserve" xmlns="http://www.w3.org/2000/svg" xmlns:xlink="http://www.w3.org/1999/xlink"><defs><linearGradient id="a" x2="1" gradientTransform="matrix(330.7 -132.82 132.82 330.7 1715 404.23)" gradientUnits="userSpaceOnUse"><stop stop-color="#f5ee30" offset="0"/><stop stop-color="#3bb549" offset="1"/></linearGradient><linearGradient id="b" x2="1" gradientTransform="matrix(-37.486 -26.058 26.058 -37.486 1364.9 456.37)" gradientUnits="userSpaceOnUse"><stop stop-color="#f5e732" offset="0"/><stop stop-color="#f1592a" offset="1"/></linearGradient><linearGradient id="k" x1="1423.6" x2="1428.6" y1="511.36" y2="496.88" gradientTransform="matrix(1.3059 0 0 1.3427 -704.16 -401.68)" gradientUnits="userSpaceOnUse" xlink:href="#b"/><linearGradient id="j" x1="1415.2" x2="1434.7" y1="505.57" y2="496.75" gradientTransform="matrix(1.3059 0 0 1.3427 -704.16 -401.68)" gradientUnits="userSpaceOnUse" xlink:href="#b"/><linearGradient id="i" x1="1429.1" x2="1435.9" y1="513.98" y2="502.89" gradientTransform="matrix(1.3059 0 0 1.3427 -704.16 -401.68)" gradientUnits="userSpaceOnUse" xlink:href="#b"/><linearGradient id="h" x1="1423.6" x2="1428.6" y1="511.36" y2="496.88" gradientTransform="matrix(1.0265 0 0 1.0757 -296.35 -261.03)" gradientUnits="userSpaceOnUse" xlink:href="#a"/><linearGradient id="g" x1="1415.2" x2="1434.7" y1="505.57" y2="496.75" gradientTransform="matrix(1.0265 0 0 1.0757 -296.35 -261.03)" gradientUnits="userSpaceOnUse" xlink:href="#a"/><linearGradient id="f" x1="1429.1" x2="1435.9" y1="513.98" y2="502.89" gradientTransform="matrix(1.0265 0 0 1.0757 -296.35 -261.03)" gradientUnits="userSpaceOnUse" xlink:href="#a"/><linearGradient id="e" x1="1423.6" x2="1428.6" y1="511.36" y2="496.88" gradientTransform="matrix(1.026 0 0 1.0757 -312.71 -261.03)" gradientUnits="userSpaceOnUse" xlink:href="#a"/><linearGradient id="d" x1="1415.2" x2="1434.7" y1="505.57" y2="496.75" gradientTransform="matrix(1.026 0 0 1.0757 -312.71 -261.03)" gradientUnits="userSpaceOnUse" xlink:href="#a"/><linearGradient id="c" x1="1429.1" x2="1435.9" y1="513.98" y2="502.89" gradientTransform="matrix(1.026 0 0 1.0757 -312.71 -261.03)" gradientUnits="userSpaceOnUse" xlink:href="#a"/></defs><g transform="translate(-1146.3 -196)"><g transform="translate(6.6667e-6 -64)"><path d="m1155.3 265.52 14-0.37614v17.708l-7.3069 4.5233-6.6932-4.144" fill="url(#k)" fill-rule="evenodd"/><path d="m1169.3 282.85v-17.708l-7.3069 4.1987v18.032" fill="url(#i)" fill-rule="evenodd"/><path d="m1162.6 261-7.3008 4.5201 6.6932 4.144 7.3006-4.5201" fill="url(#j)" fill-rule="evenodd"/><path d="m1165.3 273.49 11-0.30134v14.186l-5.7437 3.6238-5.2612-3.3199" fill="url(#h)" fill-rule="evenodd"/><path d="m1176.3 287.38v-14.186l-5.7476 3.3416v14.469" fill="url(#f)" fill-rule="evenodd"/><path d="m1171.1 269.87-5.7389 3.6213 5.2613 3.3199 5.7387-3.6213" fill="url(#g)" fill-rule="evenodd"/><path d="m1148.3 273.49 11-0.30134v14.186l-5.7412 3.6238-5.259-3.3199" fill="url(#e)" fill-rule="evenodd"/><path d="m1159.3 287.38v-14.186l-5.7419 3.2593 1e-3 14.551" fill="url(#c)" fill-rule="evenodd"/><path d="m1154.1 269.87-5.7364 3.6213 5.259 3.3199 5.7412-3.6213" fill="url(#d)" fill-rule="evenodd"/><rect x="1146.3" y="260" width="32" height="32" clip-rule="evenodd" fill="none"/></g></g></svg>
