<?xml version="1.0" encoding="UTF-8"?>
<svg width="32mm" height="32mm" version="1.1" viewBox="0 0 32 32" xml:space="preserve" xmlns="http://www.w3.org/2000/svg" xmlns:xlink="http://www.w3.org/1999/xlink"><defs><linearGradient id="c" x2="1" gradientTransform="matrix(-37.486 -26.058 26.058 -37.486 1364.9 456.37)" gradientUnits="userSpaceOnUse"><stop stop-color="#f5e732" offset="0"/><stop stop-color="#f1592a" offset="1"/></linearGradient><linearGradient id="a" x1="5.0198" x2="3.5867" y1="-1.6364" y2="-1.9825" gradientTransform="matrix(-37.486 -26.058 26.058 -37.486 1364.9 456.37)" gradientUnits="userSpaceOnUse" xlink:href="#c"/><linearGradient id="b" x1="-4.6812" x2="-2.9358" y1="-2.3952" y2="-2.8291" gradientTransform="matrix(36.2 -10.641 7.838 26.664 1335.7 426.48)" gradientUnits="userSpaceOnUse"><stop stop-color="#3bb549" offset="0"/><stop stop-color="#f5ee30" offset="1"/></linearGradient></defs><g transform="translate(-1338.3 -196)"><g transform="matrix(.39663 0 0 .39663 894.07 47.865)" stroke-width="4.3734"><path d="m1163 446.6v-11.013l-0.2067-0.0153c-4.9449-0.36603-9.7006-1.3534-14.369-2.9396-11.744-3.9905-20.556-11.336-24.052-20.048-1.8574-4.6288-2.2031-9.3251-1.0387-14.112l0.2147-0.88269 0.3075 0.91222c2.1022 6.2371 6.8546 11.885 13.658 16.233 6.6862 4.2724 14.459 6.8544 23.389 7.8171 0.5847 0.063 1.2956 0.13274 1.5798 0.15493l0.5168 0.0403v-11.444l17.649 17.649z" fill="url(#a)" stop-color="#000000" stroke-linejoin="round" stroke-miterlimit="2" stroke-width="1.1571" style="-inkscape-stroke:none;font-variation-settings:normal"/><path d="m1157.9 428.95v-11.336l0.2067-0.0153c4.945-0.36603 9.7006-1.4418 14.369-3.0281 11.744-3.9905 20.556-11.336 24.052-20.048 1.8574-4.6288 2.2031-9.3251 1.0387-14.112l-0.2147-0.88269-0.3075 0.91222c-2.1022 6.2371-6.8546 11.885-13.658 16.233-6.6862 4.2724-14.459 7.3843-23.389 8.347l-1.5798 0.15493-0.5168 0.0403v-11.562l-17.649 17.649z" fill="url(#b)" stop-color="#000000" stroke-linejoin="round" stroke-miterlimit="2" stroke-width="1.1571" style="-inkscape-stroke:none;font-variation-settings:normal"/><path d="m1163 446.6v-35.297l17.649 17.649z" fill="url(#a)" stop-color="#000000" stroke-linejoin="round" stroke-miterlimit="2" stroke-width="1.1571" style="-inkscape-stroke:none;font-variation-settings:normal"/><rect transform="matrix(.31515 0 0 .31515 1120.1 373.48)" x="-8.2421e-7" y="-1.0518e-16" width="256" height="256" clip-rule="evenodd" fill="none"/></g></g></svg>
