<?xml version="1.0" encoding="UTF-8"?>
<svg width="32mm" height="32mm" version="1.1" viewBox="0 0 32 32" xml:space="preserve" xmlns="http://www.w3.org/2000/svg" xmlns:xlink="http://www.w3.org/1999/xlink"><defs><linearGradient id="b" x1="-2845.6" x2="75.524" y1="-16539" y2="-11519" gradientTransform="matrix(-.0023696 0 0 -.0023595 1266.9 555.86)" gradientUnits="userSpaceOnUse"><stop stop-color="#fcee21" offset="0"/><stop stop-color="#fbe721" offset=".13"/><stop stop-color="#fad322" offset=".31"/><stop stop-color="#f8b222" offset=".54"/><stop stop-color="#f48523" offset=".79"/><stop stop-color="#f15a24" offset="1"/></linearGradient><linearGradient id="a" x1="2691.8" x2="5511.5" y1="12491" y2="17508" gradientTransform="matrix(.0023696 0 0 .0023595 1264.6 552.54)" gradientUnits="userSpaceOnUse"><stop stop-color="#fcee21" offset="0"/><stop stop-color="#f5ec23" offset=".1"/><stop stop-color="#e1e627" offset=".26"/><stop stop-color="#c0dd2e" offset=".45"/><stop stop-color="#93cf37" offset=".66"/><stop stop-color="#59be43" offset=".88"/><stop stop-color="#39b54a" offset="1"/></linearGradient><linearGradient id="c" x1="1412.6" x2="1432.5" y1="568.49" y2="594.33" gradientTransform="matrix(.575 0 0 .575 455.68 258.94)" gradientUnits="userSpaceOnUse"><stop stop-color="#f1592a" offset="0"/><stop stop-color="#f5e732" offset="1"/></linearGradient></defs><g transform="translate(-1338.3 -68)"><g transform="matrix(1.6157 0 0 1.6159 -702.55 -865.75)" stroke-width="1.266"><path d="m1272.4 596.4c4.1428-0.16588 7.4184-3.5678 7.427-7.7134-0.01-4.1456-3.2841-7.5475-7.427-7.7134v2.4803c2.7735 0.16344 4.9418 2.4551 4.9513 5.2331-0.01 2.778-2.1778 5.0696-4.9513 5.2331z" fill="url(#a)" stop-color="#000000" style="-inkscape-stroke:none;font-variation-settings:normal"/><path d="m1265.4 597.01c-0.784-0.12396-1.399-0.68479-1.6057-1.4643-0.068-0.25797-0.072-0.67053-0.01-0.92205 0.049-0.19572 0.1742-0.46858 0.2806-0.61291 0.041-0.055 0.9948-0.96766 2.1203-2.0281 4.8844-4.6014 6.6863-6.3034 6.9576-6.5718 0.2017-0.19963 0.26-0.29134 0.2919-0.4589 0.026-0.13632 0-0.25998-0.1089-0.547-0.1509-0.39359-0.211-0.60984-0.258-0.92815-0.091-0.62029-0.036-1.2258 0.1707-1.8454 0.097-0.29232 0.3075-0.73973 0.4728-1.0064 0.3618-0.58402 0.8877-1.1351 1.4055-1.4729 0.5312-0.34656 1.2328-0.61063 1.786-0.67214 0.6214-0.0691 1.3764 0.19213 1.8698 0.64694l0.088 0.0814-1.1679 1.168c-0.6423 0.6424-1.168 1.1811-1.168 1.1971 0 0.031 0.3972 2.2606 0.4038 2.2662 0.01 7e-3 2.2318 0.40557 2.2646 0.40556 0.022 3e-5 0.4849-0.45109 1.1993-1.1684l1.1636-1.1684 0.1114 0.12109c0.4146 0.45067 0.6596 1.1123 0.6318 1.7057-0.042 0.89942-0.5197 1.8809-1.2942 2.6599-0.6293 0.63287-1.5086 1.0834-2.4891 1.2755-0.2346 0.0459-0.298 0.0504-0.7306 0.0516-0.4217 1e-3 -0.4974-4e-3 -0.6877-0.0421-0.2563-0.052-0.4506-0.11654-0.7468-0.24832-0.1218-0.0542-0.2679-0.10607-0.3249-0.11531-0.1306-0.0213-0.2957 0.0106-0.4143 0.0801-0.1508 0.0884 0.01-0.0799-7.1753 7.5579-0.8677 0.92254-1.6165 1.7056-1.6641 1.7402-0.3854 0.2806-0.8782 0.39384-1.3734 0.31554zm0.5748-1.3549c0.1398-0.0523 0.28-0.18574 0.348-0.3313 0.046-0.0982 0.053-0.137 0.053-0.28428 0-0.14704-0.01-0.185-0.051-0.27498-0.067-0.13623-0.1884-0.25845-0.3183-0.32004-0.09-0.0425-0.1295-0.0494-0.2843-0.0494-0.1587 1e-5 -0.1929 6e-3 -0.2879 0.053-0.1558 0.0764-0.2885 0.22851-0.3371 0.38602-0.066 0.21308-0.042 0.39061 0.076 0.57346 0.1707 0.264 0.4925 0.36334 0.8019 0.24758z" fill="url(#c)" stop-color="#000000" style="font-variation-settings:normal"/><path d="m1271.8 596.4v-2.4803c-2.7736-0.16335-4.942-2.4551-4.9515-5.2331 0-2.7849 2.1711-5.087 4.9515-5.2508v-2.4771c-4.1486 0.16598-7.4265 3.5766-7.4273 7.7279 0.01 4.1457 3.2843 7.5476 7.4273 7.7134z" fill="url(#b)" stop-color="#000000" style="-inkscape-stroke:none;font-variation-settings:normal"/><rect transform="matrix(.077366 0 0 .077355 1263.2 577.85)" x="-8.2421e-7" y="-1.0518e-16" width="256" height="256" clip-rule="evenodd" fill="none"/></g></g></svg>
