<?xml version="1.0" encoding="UTF-8"?>
<svg width="32mm" height="32mm" version="1.1" viewBox="0 0 32 32" xml:space="preserve" xmlns="http://www.w3.org/2000/svg" xmlns:xlink="http://www.w3.org/1999/xlink"><defs><linearGradient id="a" x2="1" gradientTransform="matrix(330.7 -132.82 132.82 330.7 1715 404.23)" gradientUnits="userSpaceOnUse"><stop stop-color="#f5ee30" offset="0"/><stop stop-color="#3bb549" offset="1"/></linearGradient><linearGradient id="d" x1="452.42" x2="452.42" y1="-1175" y2="-1176.5" gradientTransform="matrix(6.0818e-5 1.6623 -11.781 -8.7277e-6 -11986 -666.06)" gradientUnits="userSpaceOnUse"><stop stop-color="#f1592a" offset="0"/><stop stop-color="#f5e732" offset="1"/></linearGradient><linearGradient id="c" x1="3.9925" x2="3.7509" y1="2.822" y2="2.0302" gradientTransform="matrix(-74.056 -21.769 -16.034 54.547 2191 37.303)" gradientUnits="userSpaceOnUse" xlink:href="#a"/><linearGradient id="b" x1="3.9925" x2="3.7509" y1="2.822" y2="2.0302" gradientTransform="matrix(-74.056 -21.769 -16.034 54.547 2206 37.303)" gradientUnits="userSpaceOnUse" xlink:href="#a"/></defs><g transform="translate(-1466.3 -324)"><g transform="translate(-384 256)"><rect x="1850.3" y="68" width="32" height="32" clip-rule="evenodd" fill="none"/><path d="m1857.3 74.975 5e-4 3.0195h3.9992v-3.0138zm6.0001 0.0083v3.0112h12v-2.9941zm12 5.0167-12 5.17e-4v2.9998h12zm-17.999 5.17e-4v2.9998h3.9992v-2.9998zm0 4.9997v3.0003h3.9992v-3.0003zm5.9996 0v3.0003l12-5.17e-4v-2.9998zm12 4.9997-12 5.17e-4v2.9998h12zm-17.999 5.17e-4v2.9998h4.0002v-2.9998z" fill="url(#d)" stop-color="#000000" style="-inkscape-stroke:none;font-variation-settings:normal"/><path d="m1855.3 69c-1.5146 0-2.9998 1.5039-2.9998 2.9998v10c0 0.53501-0.4949 0.99984-1 0.99994v0.99994c0.5249-4e-5 1 0.48881 1 0.99994v11c0 1.5602 1.5646 3.0003 2.9998 3.0003h2.0004v-3.0003h-2.0004l2e-4 -11.446c0-0.5539-0.4694-1.0643-1-1.0623 0.5258-8e-4 1-0.49157 0.9998-1.0103v-10.481h2.0004v-3.0003z" fill="url(#c)" stop-color="#000000" stroke-linejoin="round" stroke-miterlimit="2" stroke-width=".54126" style="font-variation-settings:normal"/><path d="m1877.3 69c1.5146 0 2.9998 1.5039 2.9998 2.9998v10c0 0.53501 0.4949 0.99984 1 0.99994v0.99994c-0.5249-4e-5 -1 0.48881-1 0.99994v11c0 1.5602-1.5646 3.0003-2.9998 3.0003h-2.0004v-3.0003h2.0004l-2e-4 -11.446c0-0.5539 0.4694-1.0643 1-1.0623-0.5258-8e-4 -1-0.49157-0.9998-1.0103v-10.481h-2.0004v-3.0003z" fill="url(#b)" stop-color="#000000" stroke-linejoin="round" stroke-miterlimit="2" stroke-width=".54126" style="-inkscape-stroke:none;font-variation-settings:normal"/></g></g></svg>
