<?xml version="1.0" encoding="UTF-8"?>
<svg width="32mm" height="32mm" version="1.1" viewBox="0 0 32 32" xml:space="preserve" xmlns="http://www.w3.org/2000/svg" xmlns:xlink="http://www.w3.org/1999/xlink"><defs><linearGradient id="b" x1="1320" x2="1320" y1="700.33" y2="712.06" gradientTransform="translate(128 -128)" gradientUnits="userSpaceOnUse"><stop stop-color="#f5ee30" offset="0"/><stop stop-color="#3bb549" offset="1"/></linearGradient><linearGradient id="a" x1="1320.5" x2="1320.5" y1="700.33" y2="703.26" gradientTransform="translate(128 -128)" gradientUnits="userSpaceOnUse" spreadMethod="reflect"><stop stop-color="#f5e732" offset="0"/><stop stop-color="#f1592a" offset="1"/></linearGradient></defs><g transform="translate(-1402.3 -324)"><g transform="matrix(2.0457 0 0 2.0457 -1542.9 -839.83)" stroke-width="1.0855"><path d="m1447.5 569.4a5.8659 2.9329 0 0 0-5.8658 2.933 5.8659 2.9329 0 0 0 5.8658 2.933 5.8659 2.9329 0 0 0 3.9106-0.74746v-1.5204a4.3994 1.4665 0 0 1-3.9106 0.80127 4.3994 1.4665 0 0 1-4.3994-1.4664 4.3994 1.4665 0 0 1 4.3994-1.4664 4.3994 1.4665 0 0 1 4.3996 1.4664 4.3994 1.4665 0 0 1 0 7e-3c8e-4 2e-3 0 3e-3 0 5e-3v1.9264a5.8659 2.9329 0 0 0 1.4666-1.939 5.8659 2.9329 0 0 0-5.866-2.933z" fill="url(#a)" stop-color="#000000" style="-inkscape-stroke:none;font-variation-settings:normal"/><path d="m1451.9 572.33c-0.01 0-0.013 6e-3 -0.013 0.0126v6.8472a5.8659 2.9329 0 0 0-2e-4 -2.5e-4v1.9266c0 2e-3 -1e-3 3e-3 0 4e-3a4.3994 1.4665 0 0 1 0 9e-3 4.3994 1.4665 0 0 1-4.3996 1.4664 4.3994 1.4665 0 0 1-4.3994-1.4664 4.3994 1.4665 0 0 1 0-8e-3c-6e-4 -1e-3 0-3e-3 0-4e-3v-6.3225a6.3547 3.4218 0 0 1-1.4664-1.1569v7.4794c0 1e-3 1e-3 2e-3 0 3e-3a5.8659 2.9329 0 0 0 0 0.01 5.8659 2.9329 0 0 0 5.8658 2.933 5.8659 2.9329 0 0 0 5.866-2.933 5.8659 2.9329 0 0 0 0-0.01c2e-4 -1e-3 0-2e-3 0-3e-3v-8.7735c0-7e-3 -0.01-0.0126-0.013-0.0126z" fill="url(#b)" stop-color="#000000" style="-inkscape-stroke:none;font-variation-settings:normal"/><rect transform="translate(-1.2221e-6)" x="1439.7" y="568.91" width="15.642" height="15.642" clip-rule="evenodd" fill="none"/></g></g></svg>
