<?xml version="1.0" encoding="UTF-8" standalone="no"?>
<svg
   width="32mm"
   height="32mm"
   version="1.1"
   viewBox="0 0 32 32"
   xml:space="preserve"
   id="svg3"
   sodipodi:docname="Bonsai.svg"
   inkscape:version="1.4.4 (dcaf3e7d9e, 2026-05-05)"
   xmlns:inkscape="http://www.inkscape.org/namespaces/inkscape"
   xmlns:sodipodi="http://sodipodi.sourceforge.net/DTD/sodipodi-0.dtd"
   xmlns="http://www.w3.org/2000/svg"
   xmlns:svg="http://www.w3.org/2000/svg"><sodipodi:namedview
     id="namedview3"
     pagecolor="#ffffff"
     bordercolor="#000000"
     borderopacity="0.25"
     inkscape:showpageshadow="2"
     inkscape:pageopacity="0.0"
     inkscape:pagecheckerboard="0"
     inkscape:deskcolor="#d1d1d1"
     inkscape:document-units="mm"
     inkscape:zoom="2.5607762"
     inkscape:cx="160.69347"
     inkscape:cy="39.441167"
     inkscape:window-width="1920"
     inkscape:window-height="1055"
     inkscape:window-x="0"
     inkscape:window-y="25"
     inkscape:window-maximized="1"
     inkscape:current-layer="svg3" /><defs
     id="defs2"><linearGradient
       id="a"
       x1="319.66"
       x2="414.22"
       y1="725.95"
       y2="631.1"
       gradientTransform="matrix(0.30624453,0,0,0.30624453,-94.742704,-191.52014)"
       gradientUnits="userSpaceOnUse"><stop
         stop-color="#079444"
         offset="0"
         id="stop1" /><stop
         stop-color="#b8db30"
         offset="1"
         id="stop2" /></linearGradient><linearGradient
       id="a-2"
       x1="1946.3"
       x2="1978.3"
       y1="68"
       y2="36"
       gradientTransform="matrix(0.93751936,0,0,0.93751936,-1822.8571,-32.746902)"
       gradientUnits="userSpaceOnUse"><stop
         stop-color="#079444"
         offset="0"
         id="stop1-1" /><stop
         stop-color="#b8db30"
         offset="1"
         id="stop2-5" /></linearGradient><radialGradient
       id="a-1"
       cx="1994.3"
       cy="117.75"
       r="14"
       gradientTransform="matrix(1.0714878,1.0714878,-1.0714878,1.0714878,-1976.739,-2253.6015)"
       gradientUnits="userSpaceOnUse"><stop
         stop-color="#b8db30"
         offset="0"
         id="stop1-0" /><stop
         stop-color="#079444"
         offset="1"
         id="stop2-7" /></radialGradient></defs><rect
     x="0.023519898"
     y="-0.0033024"
     width="32.001057"
     height="32.001057"
     fill="none"
     id="rect2"
     style="clip-rule:evenodd;stroke-width:0.125004" /><path
     d="M 5.6459,1.003485 C 4.6103,1.003382 3.7707,1.842799 3.7705,2.87843 v 26.250543 c 2e-4,1.035583 0.8398,1.875038 1.8754,1.874944 h 15.0003 c 0.4973,-1.54e-4 0.974,-0.19777 1.3256,-0.549395 l 7.5001,-7.500155 c 0.7321,-0.732268 0.7321,-1.91929 0,-2.651586 l -2.9732,-2.973718 -2.6519,2.652054 1.6461,1.647691 -5.6252,5.625304 -12.3499,-8.1e-5 V 4.753566 h 12.3471 l 5.6252,5.624742 -8.597,8.598928 -2.9738,-2.973718 2.9738,-2.973718 1.6472,1.647221 2.6516,-2.651586 -2.9733,-2.97278 c -0.7322,-0.731687 -1.9188,-0.731687 -2.651,0 l -5.6253,5.625304 c -0.732,0.732268 -0.732,1.91929 0,2.651586 l 5.6253,5.624741 c 0.7322,0.731688 1.9188,0.731688 2.651,0 L 29.4651,11.704054 c 0.732,-0.732269 0.732,-1.91929 0,-2.651586 L 21.965,1.552313 C 21.6133,1.200687 21.1366,1.003067 20.6394,1.002917 Z"
     fill="url(#a)"
     stop-color="#000000"
     stroke-linecap="round"
     stroke-linejoin="round"
     stroke-miterlimit="2"
     id="path2-4"
     style="fill:url(#a-2);stroke-width:0.937519" /></svg>
