<?xml version="1.0" encoding="UTF-8"?>
<svg width="32mm" height="32mm" version="1.1" viewBox="0 0 32 32" xml:space="preserve" xmlns="http://www.w3.org/2000/svg" xmlns:xlink="http://www.w3.org/1999/xlink"><defs><linearGradient id="b" x1="1149.3" x2="1171.9" y1="447.99" y2="447.99" gradientTransform="matrix(-.5 .86604 .86602 .5 1353.3 -781.34)" gradientUnits="userSpaceOnUse"><stop stop-color="#f5ee30" offset=".15036"/><stop stop-color="#3bb549" offset=".65292"/></linearGradient><linearGradient id="a" x1="1173.3" x2="1181.9" y1="459.15" y2="444.56" gradientTransform="matrix(.49837 .86323 -1.0276 .59332 1042.2 -830.33)" gradientUnits="userSpaceOnUse"><stop stop-color="#f1592a" offset="0"/><stop stop-color="#f5e732" offset="1"/></linearGradient></defs><g transform="translate(-1402.3 -68.001)"><g transform="matrix(1.5165 .87554 -.87553 1.5165 49.169 -1611.6)" stroke-width="1.0855"><rect transform="matrix(.86602 -.5 .5 .86603 0 0)" x="772.76" y="959.21" width="18.275" height="18.275" clip-rule="evenodd" fill="none"/><path d="m1151.6 443.38c-0.7021 0.40533-1.0746 1.5649-0.6269 2.3405l3.9734 6.8822 0.3096 0.5362 0.4878 0.84513c-0.03-0.71438 0.4075-1.3276 0.9958-1.7017l-0.3096-0.53621-3.9734-6.8822 8.9022-5.1398 4.5685 7.9129-8.9022 5.1398c-0.7642 0.44124-1.0622 1.5864-0.6269 2.3404l1.4276 2.4727c0.4082 0.7069 1.6471 1.0275 2.3403 0.62731l10.386-5.9963-0.8567-1.4839-10.386 5.9963-1.4276-2.4727 10.386-5.9963-5.4252-9.3968-0.8567-1.4839z" fill="url(#b)" style="-inkscape-stroke:none;font-variation-settings:normal"/><path d="m1170.5 447.62 0.8567 1.4837-11.87 6.853-0.8566-1.4837 10.386-5.9964-5.6706-9.9146 1.4435-0.83342z" fill="url(#a)" stop-color="#000000" stroke-width=".31337px"/></g></g></svg>
