<?xml version="1.0" encoding="UTF-8"?>
<svg width="32mm" height="32mm" version="1.1" viewBox="0 0 32 32" xml:space="preserve" xmlns="http://www.w3.org/2000/svg" xmlns:xlink="http://www.w3.org/1999/xlink"><defs><linearGradient id="b" x2="1" gradientTransform="matrix(396.57 -116.57 85.863 292.1 383.15 1013.5)" gradientUnits="userSpaceOnUse"><stop stop-color="#3bb549" offset="0"/><stop stop-color="#f5ee30" offset="1"/></linearGradient><linearGradient id="a" x2="1" gradientTransform="matrix(212.5 0 0 420.73 149.4 526.76)" gradientUnits="userSpaceOnUse"><stop stop-color="#f1592a" offset="0"/><stop stop-color="#f5e732" offset="1"/></linearGradient><linearGradient id="f" x1="449.86" x2="448.96" y1="-1178.3" y2="-1192.7" gradientTransform="matrix(.35985 .62328 -.68195 .39373 189.31 687.83)" gradientUnits="userSpaceOnUse" xlink:href="#a"/><linearGradient id="e" x1="449.86" x2="449.11" y1="-1178.3" y2="-1194.1" gradientTransform="matrix(.35742 .61906 -.68194 .39372 197.32 688.23)" gradientUnits="userSpaceOnUse" xlink:href="#a"/><linearGradient id="d" x1="432.96" x2="448.83" y1="-1178.5" y2="-1176.4" gradientTransform="matrix(.39372 .68194 -.68194 .39372 186.98 660.51)" gradientUnits="userSpaceOnUse" xlink:href="#b"/><linearGradient id="c" x1="449.86" x2="447.35" y1="-1178.3" y2="-1186.7" gradientTransform="matrix(.36104 .62534 -.75013 .43309 120.73 732.46)" gradientUnits="userSpaceOnUse" xlink:href="#b"/></defs><g transform="translate(-1082.3 -323.99)"><g transform="matrix(1.4887 .91874 -.85949 1.5913 -202.12 -1524.1)" stroke-width="1.0855"><path d="m1153.8 502.77 1.0921 1.8916 5.038-2.9087-1.0921-1.8916z" fill="url(#f)" stop-color="#000000" style="font-variation-settings:normal"/><path d="m1159.9 501.75 1.0848 1.8789 10.076-5.8174-1.0848-1.8789z" fill="url(#e)" stop-color="#000000" style="font-variation-settings:normal"/><path d="m1152.1 499.94 1.0884 1.8852 0.4634-1.5244 13.099-7.5626 1.5518 0.36086-1.0885-1.8852z" fill="url(#d)" stop-color="#000000" style="-inkscape-stroke:none;font-variation-settings:normal"/><path d="m1166 501.95 1.0956 1.8979 5.5418-3.1995-1.0957-1.8979z" fill="url(#c)" stop-color="#000000" style="font-variation-settings:normal"/><rect transform="matrix(.062975 -.036359 .034013 .058913 1150 497.4)" x="-8.2421e-7" y="-1.0518e-16" width="256" height="256" clip-rule="evenodd" fill="none"/></g></g></svg>
