<?xml version="1.0" encoding="UTF-8"?>
<svg width="32mm" height="32mm" version="1.1" viewBox="0 0 32 32" xml:space="preserve" xmlns="http://www.w3.org/2000/svg" xmlns:xlink="http://www.w3.org/1999/xlink"><defs><linearGradient id="a" x1="1311.1" x2="1319.3" y1="573.65" y2="594.63" gradientTransform="matrix(.85607 0 0 1 189.72 0)" gradientUnits="userSpaceOnUse"><stop stop-color="#f1592a" offset="0"/><stop stop-color="#f5e732" offset="1"/></linearGradient><linearGradient id="b" x1="1134.3" x2="1299" y1="164.73" y2="240" gradientTransform="matrix(.061104 0 0 .059468 1244.2 577.13)" gradientUnits="userSpaceOnUse"><stop stop-color="#3bb549" offset="0"/><stop stop-color="#f5ee30" offset="1"/></linearGradient></defs><g transform="translate(-1146.3 -324)"><g transform="matrix(2.0457 0 0 2.0457 -1533.6 -856.18)"><rect x="1316.9" y="577.4" width="1.9553" height="14.665" fill="url(#a)" stop-color="#000000" style="-inkscape-stroke:none;font-variation-settings:normal"/><path d="m1316.4 578.87c-2.0762 0.31963-3.2478 1.5269-3.2478 3.4118 0 1.7538 0.9049 2.6123 3.2478 3.0519v-2.1052c-0.7149-0.25967-0.9536-0.59288-0.9536-1.1653 0-0.57604 0.3478-1.0106 0.9536-1.2349zm2.9329 0.10031v2.2229c0.3518 0.29758 0.4825 0.56841 0.5193 1.0986h2.246c-0.013-1.8387-0.9307-2.8854-2.7653-3.3215zm0 4.8904v2.1394c0.67 0.28641 0.9425 0.6872 0.9425 1.3094 0 0.58589-0.341 1.0292-0.9425 1.2843v1.982c2.0699-0.39892 3.2527-1.6515 3.2527-3.5473 0-1.7956-0.9305-2.7323-3.0963-3.1382zm-6.3632 2.8307c0.1202 2.0283 1.3056 3.546 3.4303 3.9107v-2.0336c-0.6826-0.30255-1.0373-1.111-1.0878-1.877z" fill="url(#b)" stop-color="#000000" style="-inkscape-stroke:none;font-variant-caps:normal;font-variant-east-asian:normal;font-variant-ligatures:normal;font-variant-numeric:normal;font-variation-settings:normal"/><rect transform="matrix(.061104 0 0 .061104 1310.1 576.91)" x="-8.2421e-7" y="-1.0518e-16" width="256" height="256" clip-rule="evenodd" fill="none"/></g></g></svg>
