<?xml version="1.0" encoding="UTF-8"?>
<svg width="32mm" height="32mm" version="1.1" viewBox="0 0 32 32" xml:space="preserve" xmlns="http://www.w3.org/2000/svg" xmlns:xlink="http://www.w3.org/1999/xlink"><defs><linearGradient id="d" x1="1173.3" x2="1181.9" y1="459.15" y2="444.56" gradientTransform="matrix(.99676 0 0 .99676 -351.11 545.85)" gradientUnits="userSpaceOnUse"><stop stop-color="#3bb549" offset=".34708"/><stop stop-color="#f5ee30" offset=".84964"/></linearGradient><linearGradient id="c" x1="450.39" x2="447.35" y1="-1172" y2="-1186.7" gradientTransform="matrix(.49838 .86322 -.86322 .49838 -31.14 648.28)" gradientUnits="userSpaceOnUse"><stop stop-color="#f1592a" offset="0"/><stop stop-color="#f5e732" offset="1"/></linearGradient><linearGradient id="b" x1="450.39" x2="447.35" y1="-1172" y2="-1186.7" gradientTransform="matrix(.49838 .86322 -.86322 .49838 -29.74 650.71)" gradientUnits="userSpaceOnUse"><stop stop-color="#f1592a" stop-opacity=".64678" offset="0"/><stop stop-color="#f5e732" stop-opacity=".35631" offset="1"/></linearGradient><linearGradient id="a" x1="450.39" x2="447.35" y1="-1172" y2="-1186.7" gradientTransform="matrix(.49838 .86322 -.86322 .49838 -28.227 653.33)" gradientUnits="userSpaceOnUse"><stop stop-color="#f1592a" stop-opacity=".28897" offset="0"/><stop stop-color="#f5e732" stop-opacity=".11626" offset="1"/></linearGradient></defs><g transform="translate(-1082.3 -196)"><g transform="matrix(1.7511 0 0 1.7511 -1024.1 -577.62)" stroke-width="1.0855"><path d="m1216.2 443-7.0969 4.0974 1.5126 2.6198 7.0969-4.0974zm-10.726 6.1927-1.9742 1.1398 1.5125 2.6198 1.9743-1.1398z" fill="url(#c)" stop-color="#000000" style="font-variation-settings:normal"/><path d="m1217.6 445.43-7.0937 4.0955 1.5126 2.6198 7.0937-4.0955zm-10.723 6.1909-1.9774 1.1417 1.5125 2.6198 1.9775-1.1416z" fill="url(#b)" stop-color="#000000" style="font-variation-settings:normal"/><path d="m1219.1 448.05-7.0936 4.0955 1.5125 2.6198 7.0937-4.0955zm-10.723 6.1909-1.9774 1.1417 1.5125 2.6198 1.9775-1.1417z" fill="url(#a)" stop-color="#000000" style="font-variation-settings:normal"/><rect transform="rotate(-30)" x="819.98" y="988.66" width="3.0247" height="14.665" fill="url(#d)" stop-color="#000000" style="font-variation-settings:normal"/><rect transform="matrix(.071385 0 0 .071385 1202.9 441.8)" x="-8.2421e-7" y="-1.0518e-16" width="256" height="256" clip-rule="evenodd" fill="none"/></g></g></svg>
