<?xml version="1.0" encoding="UTF-8"?>
<svg width="32mm" height="32mm" version="1.1" viewBox="0 0 32 32" xml:space="preserve" xmlns="http://www.w3.org/2000/svg" xmlns:xlink="http://www.w3.org/1999/xlink"><defs><linearGradient id="e" x2="1" gradientTransform="matrix(11.164 -3.1181 2.4172 7.8129 1224.3 95.675)" gradientUnits="userSpaceOnUse"><stop stop-color="#3bb549" offset="0"/><stop stop-color="#f5ee30" offset="1"/></linearGradient><linearGradient id="d" x2=".95791" y2=".0001803" gradientTransform="matrix(3.537 -7.4573 10.893 5.0881 1219.6 78.156)" gradientUnits="userSpaceOnUse"><stop stop-color="#f5ee30" offset="0"/><stop stop-color="#3bb549" offset="1"/></linearGradient><linearGradient id="c" x1="1237.1" x2="1263.8" y1="334.77" y2="323.45" gradientTransform="matrix(.5762 0 0 .49901 506.13 -87.405)" gradientUnits="userSpaceOnUse"><stop stop-color="#f5ee30" offset="0"/><stop stop-color="#3bb549" offset="1"/></linearGradient><linearGradient id="b" x2="1" gradientTransform="matrix(11.561 7.9825 -8.0361 11.484 1224.3 83.364)" gradientUnits="userSpaceOnUse"><stop stop-color="#f5e732" offset="0"/><stop stop-color="#f1592a" offset="1"/></linearGradient><linearGradient id="a" x2="1" gradientTransform="matrix(5.9879 0 0 11.765 1217.3 82.119)" gradientUnits="userSpaceOnUse"><stop stop-color="#f1592a" offset="0"/><stop stop-color="#f5e732" offset="1"/></linearGradient></defs><g transform="translate(-1210.3 -68)"><g transform="translate(6.6667e-6)" clip-rule="evenodd"><path d="m1224.3 69 10 5-10 5z" fill="url(#c)" fill-rule="evenodd" stop-color="#000000" stroke-linecap="round" stroke-linejoin="round" stroke-width=".56357"/><path d="m1234.2 90.627 0.2428-0.16964-0.026-0.2121 0.154 0.11202 0.1478 0.1136 0.1417 0.11518 0.1352 0.11675 0.1288 0.1182 0.1223 0.11962 0.1156 0.12087 0.1091 0.1221 0.1023 0.12331 0.095 0.1243 0.089 0.12537 0.082 0.12638 0.075 0.12713 0.068 0.12799 0.061 0.12863 0.054 0.1293 0.047 0.12991 0.039 0.13032 0.032 0.13072 0.025 0.13098 0.018 0.1313 0.011 0.13141v0.7922l-0.011 0.13141-0.018 0.1313-0.025 0.13098-0.032 0.13072-0.039 0.13032-0.047 0.12991-0.054 0.12922-0.061 0.12871-0.068 0.12799-0.075 0.12713-0.082 0.1263-0.089 0.12537-0.096 0.12438-0.1023 0.12331-0.1091 0.1221-0.1156 0.12087-0.1223 0.11962-0.1288 0.1182-0.1352 0.11667-0.1416 0.11526-0.1479 0.1136-0.154 0.11202-0.1601 0.11026-0.1662 0.10841-0.172 0.10656-0.1778 0.10466-0.1835 0.10271-0.1891 0.10065-0.1945 0.09854-0.1999 0.09629-0.205 0.09421-0.2102 0.09177-0.2151 0.08952-0.22 0.0872-0.2247 0.08466-0.2293 0.08217-0.2336 0.07966-0.238 0.07698-0.2422 0.07441-0.2461 0.07171-0.25 0.06903-0.2537 0.0662-0.2572 0.06344-0.2607 0.06051-0.2639 0.05777-0.2669 0.05475-0.2699 0.05181-0.2728 0.04882-0.2752 0.04582-0.2777 0.0428-0.2799 0.03969-0.282 0.0367-0.2839 0.03351-0.2858 0.03033-0.2872 0.02725-0.2888 0.02407-0.2898 0.02089-0.2911 0.01773-0.2918 0.01447-0.2926 0.01126-0.293 0.0081-0.2935 0.0048-0.2936 0.0016c2.1624-1.1231 3.792-1.992 4.9156-3.6192-2.1206-0.20751-3.4555-1.2091-4.9156-2.4095l0.2936-0.0016 0.2935-0.0048 0.293-0.0081 0.2926-0.01129 0.2918-0.01447 0.2911-0.01771 0.2898-0.02089 0.2888-0.02407 0.2872-0.02726 0.2858-0.03036 0.2839-0.03351 0.282-0.0367 0.2799-0.03969 0.2777-0.0428 0.2752-0.04579 0.2728-0.04881 0.2699-0.05184 0.2669-0.05475 0.2639-0.05767 0.2607-0.06061 0.2572-0.06345 0.2537-0.0662 0.25-0.06896 0.2461-0.07171 0.2422-0.07447 0.238-0.07698 0.2336-0.07968 0.2293-0.08214 0.2247-0.08468 0.22-0.08717 0.2151-0.08944 0.2102-0.09188 0.205-0.0941 0.1999-0.09637 0.1945-0.09857 0.1891-0.10062 0.1835-0.10266 0.1778-0.10472 0.172-0.10659z" fill="url(#e)" fill-rule="evenodd" stroke-linejoin="round" stroke-miterlimit="2" stroke-width=".2307"/><path d="m1218.4 79.367-0.1293 0.17952v0.17594l-0.077-0.11415-0.074-0.11586-0.071-0.11745-0.068-0.11893-0.064-0.12052-0.061-0.1219-0.058-0.12321-0.055-0.12444-0.051-0.12567-0.048-0.12682-0.044-0.12782-0.041-0.12875-0.037-0.12958-0.034-0.13048-0.03-0.13115-0.027-0.1318-0.023-0.13238-0.02-0.13283-0.016-0.13328-0.013-0.13353-0.01-0.13386-0.01-0.13398v-0.59882l0.01-0.13398 0.01-0.13378 0.013-0.13361 0.016-0.13319 0.02-0.13291 0.023-0.1323 0.027-0.1318 0.03-0.13115 0.034-0.13048 0.037-0.12958 0.041-0.12883 0.044-0.12774 0.048-0.12682 0.051-0.12567 0.055-0.12452 0.058-0.12321 0.061-0.12181 0.064-0.12052 0.068-0.11902 0.071-0.11745 0.074-0.11577 0.077-0.11415 0.08-0.11236 0.083-0.11057 0.086-0.1087 0.089-0.10671 0.092-0.10459 0.095-0.1026 0.097-0.1005 0.1-0.09821 0.1027-0.09597 0.1051-0.09357 0.1077-0.09125 0.1101-0.08887 0.1124-0.08624 0.1148-0.08381 0.1169-0.08118 0.1192-0.07858 0.1211-0.07576 0.1232-0.07315 0.1251-0.07033 0.127-0.06748 0.1287-0.06465 0.1305-0.0618 0.1321-0.05881 0.1335-0.05576 0.1351-0.05285 0.1365-0.04972 0.1377-0.04676 0.1391-0.04362 0.1401-0.04046 0.141-0.03739 0.1422-0.03417 0.143-0.03093 0.1438-0.0278 0.1445-0.02455 0.145-0.02123 0.1457-0.01809 0.146-0.01476 0.1465-0.01155 0.1466-0.0082 0.1469-0.0049 0.1469-0.0016v5.993l-0.1469 0.0016-0.1469 0.0049-0.1466 0.0082-0.1465 0.01152-0.146 0.01476-0.1457 0.01801-0.145 0.02134-0.1445 0.02455-0.1438 0.02777-0.143 0.03096-0.1422 0.03417-0.141 0.0373-0.1401 0.04055-0.1391 0.0436-0.1377 0.04667-0.1365 0.0498-0.1351 0.0528-0.1335 0.05584-0.1321 0.05881-0.1305 0.06177-0.1287 0.06468-0.127 0.06745-0.1251 0.07036-0.1232 0.07304-0.1211 0.07587-0.1192 0.07855-0.1169 0.08118-0.1148 0.08381-0.1124 0.08627-0.1101 0.08887-0.1077 0.09122-0.1051 0.09359-0.1027 0.09595-0.1 0.09824-0.097 0.10039-0.095 0.1026-0.092 0.1047-0.089 0.10671-0.081 0.10254z" fill="url(#d)" fill-rule="evenodd" stroke-linejoin="round" stroke-miterlimit="2" stroke-width=".236"/><path d="m1217.3 76.538c0.04 3.0673 2.6339 5.4267 5.9879 5.4624v6.0019c-3.3587-0.03641-5.9473-2.3987-5.9879-5.4624z" fill="url(#a)" fill-rule="evenodd" stroke-linejoin="round" stroke-miterlimit="2" stroke-width=".236"/><path d="m1224.3 88.002v-6.0021c6.7743 0.03872 11.883 2.4877 11.964 5.6023v6.0021c-0.082-3.1438-5.2814-5.5647-11.964-5.6023z" fill="url(#b)" fill-rule="evenodd" stroke-linejoin="round" stroke-miterlimit="2" stroke-width=".23589"/><rect x="1210.3" y="68" width="32" height="32" fill="none"/></g></g></svg>
