<?xml version="1.0" encoding="UTF-8"?>
<svg width="32mm" height="32mm" version="1.1" viewBox="0 0 32 32" xml:space="preserve" xmlns="http://www.w3.org/2000/svg" xmlns:xlink="http://www.w3.org/1999/xlink"><defs><linearGradient id="a" x2="1" gradientTransform="matrix(36.2 -10.641 7.838 26.664 1348.7 433.3)" gradientUnits="userSpaceOnUse"><stop stop-color="#3bb549" offset="0"/><stop stop-color="#f5ee30" offset="1"/></linearGradient><linearGradient id="e" x1="4.0846" x2="3.7515" y1="2.3743" y2="1.9818" gradientTransform="matrix(-34.896 -11.191 -7.5556 28.04 1644.7 424.97)" gradientUnits="userSpaceOnUse" xlink:href="#a"/><linearGradient id="d" x1="3.9925" x2="3.7509" y1="2.822" y2="2.0302" gradientTransform="matrix(-36.2 -10.641 -7.838 26.664 1655.6 428.76)" gradientUnits="userSpaceOnUse"><stop stop-color="#f5ee30" offset="0"/><stop stop-color="#3bb549" offset="1"/></linearGradient><linearGradient id="c" x1="4.0846" x2="3.7515" y1="2.3743" y2="1.9818" gradientTransform="matrix(11.191 -34.897 -28.042 -7.5557 1516.2 604.37)" gradientUnits="userSpaceOnUse" xlink:href="#a"/><linearGradient id="b" x1="1492.6" x2="1495.9" y1="458.98" y2="455.56" gradientTransform="matrix(1.3748 0 0 1.5 -563.84 -229.75)" gradientUnits="userSpaceOnUse"><stop stop-color="#f5e732" offset="0"/><stop stop-color="#f1592a" offset="1"/></linearGradient></defs><g transform="translate(-1466.3 -196)"><g transform="matrix(2.0457 0 0 2.0457 -1574.9 -711.83)" stroke-width="1.0855"><path d="m1493.5 451.1v-1.4665h-5.3771v1.4665z" fill="url(#e)" stop-color="#000000" stroke-linejoin="round" stroke-miterlimit="2" stroke-width=".37998" style="font-variation-settings:normal"/><path d="m1491.5 444.26c-0.7404-2e-5 -1.4666 0.73512-1.4666 1.4664v0.97784h1.4666v-0.97758h3.4216a1.9553 1.9553 0 0 1 0.6638-1.4666h-1.6414zm5.2707 0c-0.6167 2.9e-4 -1.3602 0.60386-1.3601 1.4666v3.4216c0 0.69746 0.7161 1.4666 1.4662 1.4666h3.422v6.8434h-8.7988v-0.97759h-1.4666v0.97759c0 0.76267 0.765 1.4666 1.4666 1.4666h8.7988c0.7607 0 1.4664-0.70794 1.4664-1.4666v-6.8434c0-0.73559-0.6677-1.4666-1.4664-1.4666h-3.4223v-3.4216l2.9224 2.9226 0.4999 0.0101c0.5552 0.0114 1.0949 0.31105 1.4664 0.7419v-0.85658l-3.8889-3.8876c-0.214-0.21395-0.6047-0.41934-1.1051-0.3971z" fill="url(#d)" stop-color="#000000" stroke-linejoin="round" stroke-miterlimit="2" stroke-width=".26458" style="font-variation-settings:normal"/><path d="m1491.5 453.06v-5.3771h-1.4665v5.3771z" fill="url(#c)" stop-color="#000000" stroke-linejoin="round" stroke-miterlimit="2" stroke-width=".37999" style="font-variation-settings:normal"/><path d="m1493.5 454.03h-5.3771v1.4665h5.3764v-1.4665z" fill="url(#b)" stop-color="#000000" stroke-linejoin="round" stroke-miterlimit="2" stroke-width=".37995" style="font-variation-settings:normal"/><rect transform="matrix(.061103 0 0 .061103 1486.6 443.77)" x="-8.2421e-7" y="-1.0518e-16" width="256" height="256" clip-rule="evenodd" fill="none"/></g></g></svg>
