<?xml version="1.0" encoding="UTF-8"?>
<svg width="32mm" height="32mm" version="1.1" viewBox="0 0 32 32" xml:space="preserve" xmlns="http://www.w3.org/2000/svg" xmlns:xlink="http://www.w3.org/1999/xlink"><defs><linearGradient id="a" x2="1" gradientTransform="matrix(410.66 285.46 -285.46 410.66 383.15 571.28)" gradientUnits="userSpaceOnUse"><stop stop-color="#f5e732" offset="0"/><stop stop-color="#f1592a" offset="1"/></linearGradient><linearGradient id="e" x2="1" gradientTransform="matrix(12.48 -3.6687 2.7022 9.1925 1561.3 130.37)" gradientUnits="userSpaceOnUse"><stop stop-color="#3bb549" offset="0"/><stop stop-color="#f5ee30" offset="1"/></linearGradient><linearGradient id="d" x1="1492.2" x2="1496" y1="-69.857" y2="-77.916" gradientTransform="translate(64.281 180.65)" gradientUnits="userSpaceOnUse"><stop stop-color="#f5ee30" offset="0"/><stop stop-color="#3bb549" offset="1"/></linearGradient><linearGradient id="g" x2="1" gradientTransform="matrix(16.52 11.698 -6.0387 22.426 1509 -163.79)" gradientUnits="userSpaceOnUse" xlink:href="#a"/><linearGradient id="f" x2="1" gradientTransform="matrix(18.317 8.4171 15.528 -16.947 1310.9 197.71)" gradientUnits="userSpaceOnUse" xlink:href="#a"/><linearGradient id="c" x2="1" gradientTransform="matrix(12.679 8.9884 -8.8133 12.931 1561.6 188.74)" gradientUnits="userSpaceOnUse" xlink:href="#a"/><linearGradient id="b" x2="1" gradientTransform="matrix(6.567 0 0 13.248 1553.9 187.33)" gradientUnits="userSpaceOnUse"><stop stop-color="#f1592a" offset="0"/><stop stop-color="#f5e732" offset="1"/></linearGradient></defs><g transform="translate(-1146.3 -68)"><g transform="matrix(.91182 0 0 .88809 -263.57 -20.25)"><path d="m1573.2 113.14c-1.3657-2.7148-2.8291-2.4976-4.2378-3.4416 0.026-0.61061 0.052-1.2214 0.078-1.8322 0.7851 0.76308 1.4521 1.1749 2.4048 1.8074 1.4577 0.68562 1.8143 2.1812 1.7548 3.4664z" fill="url(#f)" stop-color="#000000" style="-inkscape-stroke:none;font-variation-settings:normal"/><path d="m1574.9 110.3c-2.9689 0.21197-3.5482-1.1847-5.0656-1.9303-0.4946 0.34012-0.9894 0.6802-1.4843 1.0203 1.0429 0.29243 1.7321 0.66369 2.7534 1.171 1.3278 0.92278 2.7578 0.4588 3.7965-0.26102z" fill="url(#g)" stop-color="#000000" style="-inkscape-stroke:none;font-variation-settings:normal"/><path d="m1572.4 124.43c1.0698 0.74118 2.0814 1.7781 2.2859 3.1157 0.191 1.2142-0.462 2.3876-1.3239 3.1959-2.5246 2.2668-5.535 2.5612-8.447 2.2016-4.0939-0.50563-6.5803-4.3003-6.5803-4.3003 6.5803 2.8956 11.52-0.29062 14.065-4.2129z" clip-rule="evenodd" fill="url(#e)" fill-rule="evenodd" stroke-linejoin="round" stroke-miterlimit="2" stroke-width=".26458"/><path d="m1554.3 114.16c-0.5661-1.9963-0.3881-3.1458-0.383-5.628 0-1.8301 1.2169-3.4929 2.4491-4.4053 1.2322-0.91244 2.793-1.3788 4.2426-1.3955 1.1398 0.0281 1.8523-0.0773 2.907-0.12108 0.2844-0.01 0.537 0.0321 1.401 0.23095 0.4778 0.10998 1.0006 0.17239 1.3923 0.16645 0.3624-5e-3 0.674 0.0382 0.9764 0.13706 0.2589 0.0847 0.816 0.47196 1.0721 0.7454 0.3624 0.38666 1.4398 1.9894 1.8444 2.7432 0.1376 0.25653 0.3189 0.52004 0.6056 0.88003 0.6994 0.87873 0.8223 1.1833 0.6559 1.6252-0.2543 0.67551-0.823 1.319-1.392 1.5752-0.2899 0.13052-0.7107 0.16259-1.1383 0.0866-0.2114-0.0375-0.6544-0.17017-1.1222-0.33613-0.4886-0.17331-0.9259-0.30324-1.1884-0.35336-0.2284-0.0436-0.7186-0.16418-1.0892-0.26812-0.3706-0.10388-0.8764-0.23141-1.1239-0.28334-0.552-0.1159-0.6512-0.1563-0.9492-0.38637-0.1817-0.14023-0.3043-0.27033-0.5363-0.56951-0.2267-0.29215-0.3318-0.40449-0.4268-0.45576-0.4024-0.21728-1.3908-0.62403-3.4693 0.39675s-3.7745 2.2221-4.7278 5.6155zm14.119-8.5617c-0.049-0.21853-0.1917-0.49367-0.3275-0.63194l-0.1105-0.11248-0.081 0.10648c-0.1148 0.15027-0.1635 0.39508-0.1084 0.5446 0.038 0.10221 0.082 0.15147 0.2342 0.25718 0.3003 0.20925 0.4622 0.14186 0.3936-0.16384zm-2.4518 2.8215c-0.092-0.10153-0.2735-0.32819-0.4406-0.34017-0.1671-0.012-0.436 0.11859-0.502 0.20409s-0.1065 0.0287 0.1567 0.20608 0.773 0.23879 0.8251 0.14728c0.034-0.0698 0-0.16631-0.039-0.21728z" fill="url(#d)" stroke-width=".99999"/><path transform="translate(-7.0829e-6 -72.065)" d="m1553.9 181.05c0.045 3.4538 2.8886 6.1105 6.567 6.1508v6.7582c-3.6836-0.041-6.5225-2.7009-6.567-6.1508z" clip-rule="evenodd" fill="url(#b)" fill-rule="evenodd" stroke-linejoin="round" stroke-miterlimit="2" stroke-width=".26226"/><path transform="translate(-7.0829e-6 -72.065)" d="m1561.6 193.96v-6.7585c7.4295 0.0436 13.032 2.8012 13.122 6.3083v6.7584c-0.09-3.5399-5.7922-6.266-13.122-6.3083z" clip-rule="evenodd" fill="url(#c)" fill-rule="evenodd" stroke-linejoin="round" stroke-miterlimit="2" stroke-width=".26213"/><rect transform="matrix(.13709 0 0 .14075 1546.3 99.37)" x="-8.2421e-7" y="-1.0518e-16" width="256" height="256" clip-rule="evenodd" fill="none"/></g></g></svg>
