<?xml version="1.0" encoding="UTF-8"?>
<svg width="32mm" height="32mm" version="1.1" viewBox="0 0 32 32" xml:space="preserve" xmlns="http://www.w3.org/2000/svg" xmlns:serif="http://www.serif.com/" xmlns:xlink="http://www.w3.org/1999/xlink"><defs><linearGradient id="d" x2="1" gradientTransform="matrix(388.04 -111.5 84.017 279.39 391.79 1018.9)" gradientUnits="userSpaceOnUse"><stop stop-color="#3bb549" offset="0"/><stop stop-color="#f5ee30" offset="1"/></linearGradient><linearGradient id="c" x2=".95791" y2=".0001803" gradientTransform="matrix(122.94 -266.68 378.61 181.95 228.98 392.44)" gradientUnits="userSpaceOnUse"><stop stop-color="#f5ee30" offset="0"/><stop stop-color="#3bb549" offset="1"/></linearGradient><linearGradient id="b" x2="1" gradientTransform="matrix(208.13 0 0 420.73 148.9 534.09)" gradientUnits="userSpaceOnUse"><stop stop-color="#f1592a" offset="0"/><stop stop-color="#f5e732" offset="1"/></linearGradient><linearGradient id="a" x2="1" gradientTransform="matrix(401.83 285.46 -279.32 410.66 391.79 578.6)" gradientUnits="userSpaceOnUse"><stop stop-color="#f5e732" offset="0"/><stop stop-color="#f1592a" offset="1"/></linearGradient></defs><g transform="translate(-1082.3 -67.993)"><g transform="matrix(.02877 0 0 .027964 1085.1 67.175)" clip-rule="evenodd" fill-rule="evenodd" stroke-linejoin="round" stroke-miterlimit="2" stroke-width="8.4072" serif:id="Logo IfcOpenShell"><path d="m744.02 832.33c18.051 11.403 55.982 31.518 63.628 94.935l-0.12525 23.628c-8.342 104.33-183.41 185.58-415.74 186.93v-215.59c141.61-0.7966 269.74-30.595 352.23-89.901z" fill="url(#d)" fill-rule="evenodd" stroke-linejoin="round" stroke-miterlimit="2" stroke-width="8.1335"/><path d="m181.03 442.16c-12.017-10.232-30.084-43.15-32.067-93.421l-0.0617-16.621c1.4066-109.27 91.01-193.98 208.13-195.34v214.31c-47.868 0.55282-122.9 15.206-176 91.069z" fill="url(#c)" fill-rule="evenodd" stroke-linejoin="round" stroke-miterlimit="2" stroke-width="8.3203"/><path d="m148.9 334.48c1.4117 109.69 91.548 194.06 208.13 195.34v214.63c-116.74-1.3026-206.72-85.776-208.13-195.34z" fill="url(#b)" fill-rule="evenodd" stroke-linejoin="round" stroke-miterlimit="2" stroke-width="8.3203"/><path d="m391.79 744.46v-214.64c235.46 1.3846 413.03 88.962 415.86 200.34v214.64c-2.8649-112.42-183.57-199-415.86-200.34z" fill="url(#a)" fill-rule="evenodd" stroke-linejoin="round" stroke-miterlimit="2" stroke-width="8.3164"/><rect transform="matrix(4.3448 0 0 4.47 -94.827 29.251)" x="-8.2421e-7" y="-1.0518e-16" width="256" height="256" fill="none"/></g></g></svg>
