<?xml version="1.0" encoding="UTF-8"?>
<svg width="32mm" height="32mm" version="1.1" viewBox="0 0 32 32" xml:space="preserve" xmlns="http://www.w3.org/2000/svg" xmlns:xlink="http://www.w3.org/1999/xlink"><defs><radialGradient id="b" cx="2056.4" cy="340.5" r="9.0001" gradientTransform="matrix(-1.8806 -1.0052e-5 9.9618e-6 -1.8638 5932.7 1002.1)" gradientUnits="userSpaceOnUse"><stop stop-color="#f5e732" offset="0"/><stop stop-color="#f1592a" offset="1"/></radialGradient><radialGradient id="a" cx="2045.5" cy="354.74" r="11.49" gradientTransform="matrix(1.4653 0 0 1.466 -956.62 -128.03)" gradientUnits="userSpaceOnUse"><stop stop-color="#fcee21" offset="0"/><stop stop-color="#f5ec23" offset=".1"/><stop stop-color="#e1e627" offset=".26"/><stop stop-color="#c0dd2e" offset=".45"/><stop stop-color="#93cf37" offset=".66"/><stop stop-color="#59be43" offset=".88"/><stop stop-color="#39b54a" offset="1"/></radialGradient></defs><g transform="translate(-1466.3 -68)"><g transform="matrix(1 0 0 1 -571.07 -295.19)"><path d="m2054.4 365.18c-1.5321 9e-5 -3.0386 1.493-3.0386 3.0003v9h3.0003l-5e-4 -9.0005h9.9999v10l-1.9999-4.2e-4 2 1.5467-2 1.4533 1.9999 2.4e-4c1.5122 1.8e-4 3.0002-1.5626 3.0003-2.9998v-9.9999c0-1.4176-1.4316-3.0002-2.9987-3.0003zm-3.0386 17v2.0004h-1.9999l3.5285 5.0002 3.4716-5.0002h-1.9999v-2.0004z" fill="url(#b)" style="-inkscape-stroke:none"/><path d="m2038.4 381.19v10c0 1.3608 1.4547 3 3 3h10c1.5204 0 3-1.543 2.9999-3.0153l3e-4 -1.9848-1.5605 2-1.4393-2-3e-4 2h-9.9999v-9.9999l16-9e-5 -0.019 2 5-3.5198-5-3.4802v2l-16.019 1.8e-4c-1.401-9e-5 -2.9618 1.4637-2.9618 2.9999z" fill="url(#a)" style="-inkscape-stroke:none"/><rect x="2037.4" y="363.19" width="32" height="32" clip-rule="evenodd" fill="none"/></g></g></svg>
