<?xml version="1.0" encoding="UTF-8"?>
<svg width="32mm" height="32mm" version="1.1" viewBox="0 0 32 32" xml:space="preserve" xmlns="http://www.w3.org/2000/svg" xmlns:xlink="http://www.w3.org/1999/xlink"><defs><linearGradient id="a" x2="1" gradientTransform="matrix(212.5 0 0 420.73 1692.3 526.76)" gradientUnits="userSpaceOnUse"><stop stop-color="#f1592a" offset="0"/><stop stop-color="#f5e732" offset="1"/></linearGradient><linearGradient id="d" x1="1202.1" x2="1184.3" y1="496.1" y2="504.63" gradientTransform="matrix(1.3468 0 0 1.3468 -1505.3 -523.39)" gradientUnits="userSpaceOnUse" xlink:href="#a"/><linearGradient id="c" x1="1202.1" x2="1184.3" y1="496.1" y2="504.63" gradientTransform="matrix(1.3468 0 0 1.3468 -1499.3 -518.39)" gradientUnits="userSpaceOnUse" xlink:href="#a"/><linearGradient id="b" x1="1623.3" x2="1623.3" y1="91" y2="77" gradientTransform="translate(-1505.2 63.556)" gradientUnits="userSpaceOnUse"><stop stop-color="#f5ee30" offset="0"/><stop stop-color="#3bb549" offset="1"/></linearGradient></defs><g transform="translate(-1402.3 -196)"><g transform="translate(1313.2 63.444)"><path d="m93.164 133.56c-1.4675 0-2.9999 1.5325-2.9999 3v5c0 1.4675 1.5324 3 2.9999 3h12c1.4673 0 2.9999-1.5325 2.9999-3v-5c0-1.4675-1.5326-3-2.9999-3zm0 3.0178h12v4.9822h-12z" fill="url(#d)" stop-color="#000000" style="font-variation-settings:normal"/><rect x="89.165" y="132.56" width="32" height="32" clip-rule="evenodd" fill="none"/><path d="m105.16 151.56c-1.4674 0-3.0001 1.5325-3.0001 3v4.9822c0 1.4675 1.5327 3.0178 3.0001 3.0178h12c1.4674 0 3-1.5325 3-3v-5c0-1.4675-1.5326-3-3-3zm0 3h12v5h-12z" fill="url(#c)" stop-color="#000000" style="font-variation-settings:normal"/><path d="m109.16 140.56 1.9995 1.7e-4v6l1.4965 2.1e-4h-4.4964l-9.0068 2.8e-4c-1.5487-8e-5 -2.9998 1.4511-2.9998 2.9998l2e-6 5.9997c1e-6 1.5487 1.4303 3.0073 2.9998 3.0003l2.0068 1.9e-4v-3.0003l-2-1.9e-4 -2e-6 -5.9997 9.0001-2.8e-4v5.2e-4l3.0066-2.1e-4c1.5695 7e-3 3.0015-1.4516 2.9998-3.0003l-7e-3 -6c-2e-3 -1.5488-1.4446-2.9999-2.9933-2.9998l-1.9923-1.7e-4v5.2e-4l-0.0139-5.2e-4z" fill="url(#b)" stop-color="#000000" style="font-variation-settings:normal"/></g></g></svg>
