<?xml version="1.0" encoding="UTF-8" standalone="no"?>
<svg
   xmlns:serif="http://www.serif.com/"
   xmlns:dc="http://purl.org/dc/elements/1.1/"
   xmlns:cc="http://creativecommons.org/ns#"
   xmlns:rdf="http://www.w3.org/1999/02/22-rdf-syntax-ns#"
   xmlns:svg="http://www.w3.org/2000/svg"
   xmlns="http://www.w3.org/2000/svg"
   xmlns:xlink="http://www.w3.org/1999/xlink"
   xmlns:sodipodi="http://sodipodi.sourceforge.net/DTD/sodipodi-0.dtd"
   xmlns:inkscape="http://www.inkscape.org/namespaces/inkscape"
   width="658.1106"
   height="791.36603"
   viewBox="0 0 658.1106 791.36604"
   version="1.1"
   xml:space="preserve"
   style="clip-rule:evenodd;fill-rule:evenodd;stroke-linejoin:round;stroke-miterlimit:2"
   id="svg173"
   sodipodi:docname="logo_transparent.svg"
   inkscape:version="0.92.3 (2405546, 2018-03-11)"><metadata
     id="metadata177"><rdf:RDF><cc:Work
         rdf:about=""><dc:format>image/svg+xml</dc:format><dc:type
           rdf:resource="http://purl.org/dc/dcmitype/StillImage" /><dc:title></dc:title></cc:Work></rdf:RDF></metadata><sodipodi:namedview
     pagecolor="#ffffff"
     bordercolor="#666666"
     borderopacity="1"
     objecttolerance="10"
     gridtolerance="10"
     guidetolerance="10"
     inkscape:pageopacity="0"
     inkscape:pageshadow="2"
     inkscape:window-width="1840"
     inkscape:window-height="1057"
     id="namedview175"
     showgrid="false"
     fit-margin-top="0"
     fit-margin-left="0"
     fit-margin-right="0"
     fit-margin-bottom="0"
     inkscape:zoom="0.5008726"
     inkscape:cx="-100.55203"
     inkscape:cy="74.398379"
     inkscape:window-x="-8"
     inkscape:window-y="-8"
     inkscape:window-maximized="1"
     inkscape:current-layer="svg173" /><g
     id="Logo-IfcOpenShell2"
     serif:id="Logo IfcOpenShell"
     transform="translate(-160.27979,-121.063)"
     style="opacity:0.2"><path
       d="m 734.5,824.782 v 0 l 2.025,1.39 5.688,4.122 5.471,4.188 5.25,4.247 5.032,4.306 4.803,4.365 4.575,4.419 4.344,4.472 4.109,4.519 3.875,4.565 3.634,4.61 3.391,4.647 3.153,4.687 2.903,4.725 2.66,4.753 2.409,4.785 2.159,4.809 1.91,4.834 1.659,4.857 1.403,4.872 1.15,4.887 0.894,4.897 0.641,4.909 0.384,4.913 0.128,4.915 -0.128,4.919 -0.384,4.913 -0.641,4.909 -0.894,4.897 -1.15,4.887 -1.403,4.872 -1.659,4.857 -1.91,4.831 -2.159,4.812 -2.409,4.785 -2.66,4.753 -2.903,4.722 -3.15,4.687 -3.394,4.65 -3.634,4.61 -3.875,4.565 -4.109,4.519 -4.344,4.472 -4.575,4.419 -4.803,4.362 -5.028,4.309 -5.254,4.247 -5.471,4.188 -5.688,4.122 -5.903,4.053 -6.109,3.984 -6.316,3.913 -6.519,3.84 -6.715,3.763 -6.91,3.684 -7.1,3.6 -7.284,3.522 -7.466,3.431 -7.64,3.347 -7.816,3.26 -7.981,3.165 -8.144,3.072 -8.3,2.978 -8.453,2.878 -8.603,2.782 -8.744,2.681 -8.878,2.581 -9.013,2.475 -9.137,2.372 -9.26,2.262 -9.375,2.16 -9.481,2.047 -9.587,1.937 -9.688,1.825 -9.775,1.713 -9.865,1.6 -9.944,1.484 -10.016,1.372 -10.087,1.253 -10.15,1.134 -10.203,1.019 -10.257,0.9 -10.297,0.781 -10.337,0.663 -10.366,0.541 -10.393,0.421 -10.41,0.304 -10.425,0.178 -10.428,0.062 v -225.39 l 10.428,-0.06 10.425,-0.181 10.41,-0.303 10.393,-0.422 10.366,-0.541 10.337,-0.662 10.297,-0.781 10.257,-0.9 10.203,-1.019 10.15,-1.135 10.087,-1.253 10.016,-1.372 9.944,-1.484 9.865,-1.6 9.775,-1.712 9.688,-1.825 9.587,-1.938 9.481,-2.047 9.375,-2.156 9.26,-2.266 9.137,-2.372 9.013,-2.475 8.878,-2.578 8.744,-2.681 8.603,-2.784 8.453,-2.878 8.3,-2.979 8.144,-3.071 7.981,-3.166 7.816,-3.259 7.64,-3.344 7.466,-3.435 7.284,-3.518 7.1,-3.603 6.91,-3.685 6.715,-3.762 6.519,-3.838 6.316,-3.915 6.109,-3.985 z"
       style="fill:url(#linearGradient4956)"
       id="path52"
       inkscape:connector-curvature="0" /><path
       d="m 165.4,316.4 0.063,4.794 0.193,4.791 0.319,4.787 0.447,4.775 0.575,4.766 0.703,4.75 0.828,4.734 0.956,4.713 1.079,4.69 1.206,4.666 1.328,4.634 1.453,4.604 1.575,4.571 1.697,4.535 1.816,4.494 1.937,4.45 2.056,4.406 2.172,4.359 2.288,4.31 2.4,4.253 2.515,4.2 2.625,4.143 2.738,4.082 2.844,4.018 2.95,3.954 0.17,0.217 c 0,0 0,0.004 0,0.004 l 2.886,3.663 3.156,3.816 3.259,3.743 3.36,3.669 3.453,3.591 3.55,3.512 3.644,3.431 3.731,3.35 3.822,3.263 3.906,3.175 3.991,3.087 4.072,2.994 4.15,2.903 4.228,2.81 4.3,2.712 4.372,2.616 4.44,2.512 4.506,2.416 4.569,2.312 4.628,2.207 4.688,2.103 4.74,1.997 4.794,1.887 4.844,1.781 4.887,1.672 4.935,1.56 4.972,1.447 5.006,1.334 5.044,1.222 5.075,1.109 5.103,0.991 5.125,0.878 5.15,0.762 5.169,0.644 5.184,0.531 5.194,0.41 5.206,0.294 5.212,0.178 5.216,0.056 v 225.391 l -5.216,-0.057 -5.212,-0.178 -5.206,-0.294 -5.194,-0.412 -5.184,-0.528 -5.169,-0.644 -5.15,-0.762 -5.125,-0.879 -5.103,-0.99 -5.075,-1.11 -5.044,-1.221 -5.006,-1.335 -4.972,-1.45 -4.935,-1.559 -4.887,-1.669 -4.844,-1.781 -4.794,-1.888 -4.74,-1.997 -4.688,-2.103 -4.628,-2.209 -4.569,-2.309 -4.506,-2.416 -4.44,-2.516 -4.372,-2.612 -4.3,-2.713 -4.228,-2.809 -4.15,-2.903 -4.072,-2.994 -3.991,-3.087 -3.906,-3.175 -3.822,-3.263 -3.731,-3.35 -3.644,-3.431 -3.55,-3.513 -3.453,-3.59 -3.36,-3.669 -3.259,-3.744 -3.156,-3.815 -3.056,-3.885 -2.95,-3.953 -2.844,-4.019 -2.738,-4.081 -2.625,-4.144 -2.515,-4.2 -2.4,-4.253 -2.288,-4.309 -2.172,-4.36 -2.056,-4.406 -1.937,-4.45 -1.816,-4.494 -1.697,-4.534 -1.575,-4.572 -1.453,-4.603 -1.328,-4.637 -1.206,-4.663 -1.079,-4.691 -0.956,-4.712 -0.828,-4.734 -0.703,-4.75 -0.575,-4.766 -0.447,-4.775 -0.319,-4.788 -0.193,-4.79 -0.063,-4.794 z"
       style="fill:url(#linearGradient4952)"
       id="path54"
       inkscape:connector-curvature="0" /><path
       d="m 204.163,428.879 -2.95,-3.954 -2.844,-4.018 -2.738,-4.082 -2.625,-4.143 -2.515,-4.2 -2.4,-4.253 -2.288,-4.31 -2.172,-4.359 -2.056,-4.406 -1.937,-4.45 -1.816,-4.494 -1.697,-4.535 -1.575,-4.571 -1.453,-4.604 -1.328,-4.634 -1.206,-4.666 -1.079,-4.69 -0.956,-4.713 -0.828,-4.734 -0.703,-4.75 -0.575,-4.766 -0.447,-4.775 -0.319,-4.787 -0.193,-4.791 -0.063,-4.794 0.063,-4.793 0.193,-4.791 0.319,-4.784 0.447,-4.778 0.575,-4.763 0.703,-4.753 0.828,-4.731 0.956,-4.713 1.079,-4.69 1.206,-4.666 1.328,-4.634 1.453,-4.607 1.575,-4.568 1.697,-4.535 1.816,-4.494 1.937,-4.453 2.056,-4.406 2.172,-4.356 2.288,-4.31 2.4,-4.256 2.515,-4.2 2.625,-4.14 2.738,-4.082 2.844,-4.018 2.95,-3.954 3.056,-3.887 3.156,-3.816 3.259,-3.74 3.36,-3.669 3.453,-3.594 3.55,-3.512 3.644,-3.432 3.731,-3.346 3.822,-3.263 3.906,-3.178 3.991,-3.084 4.072,-2.997 4.15,-2.903 4.228,-2.81 4.3,-2.709 4.372,-2.616 4.44,-2.515 4.506,-2.413 4.569,-2.312 4.628,-2.21 4.688,-2.103 4.74,-1.994 4.794,-1.89 4.844,-1.778 4.887,-1.672 4.935,-1.56 4.972,-1.447 5.006,-1.337 5.044,-1.222 5.075,-1.106 5.103,-0.994 5.128,-0.878 5.147,-0.759 5.169,-0.647 5.184,-0.528 5.197,-0.413 5.203,-0.294 5.212,-0.175 5.216,-0.059 v 225.391 l -5.216,0.059 -5.212,0.175 -5.203,0.294 -5.197,0.412 -5.184,0.528 -5.169,0.644 -5.147,0.763 -5.128,0.878 -5.103,0.993 -5.075,1.107 -5.044,1.222 -5.006,1.334 -4.972,1.45 -4.935,1.559 -4.887,1.669 -4.844,1.781 -4.794,1.888 -4.74,1.997 -4.688,2.103 -4.628,2.209 -4.569,2.313 -4.506,2.412 -4.44,2.516 -4.372,2.612 -4.3,2.713 -4.228,2.809 -4.15,2.903 -4.072,2.997 -3.991,3.085 -3.906,3.178 -3.822,3.262 -3.731,3.347 -3.644,3.431 -3.55,3.513 -3.453,3.59 -3.36,3.669 -3.259,3.744 -3.156,3.816 -2.886,3.667 z"
       style="fill:url(#linearGradient4954)"
       id="path56"
       inkscape:connector-curvature="0" /><path
       d="m 734.5,824.782 -3.878,-2.663 -6.109,-3.987 -6.316,-3.913 -6.519,-3.837 -6.715,-3.763 -6.91,-3.684 -7.1,-3.603 -7.284,-3.519 -7.466,-3.434 -7.64,-3.347 -7.816,-3.257 -7.981,-3.165 -8.144,-3.072 -8.3,-2.978 -8.453,-2.878 -8.603,-2.785 -8.744,-2.681 -8.878,-2.578 -9.013,-2.475 -9.137,-2.372 -9.26,-2.266 -9.375,-2.156 -9.481,-2.047 -9.587,-1.937 -9.688,-1.825 -9.775,-1.713 -9.865,-1.6 -9.941,-1.484 -10.019,-1.372 -10.087,-1.253 -10.147,-1.134 -10.206,-1.019 -10.254,-0.9 -10.3,-0.781 -10.334,-0.663 -10.369,-0.541 -10.39,-0.421 -10.413,-0.304 -10.425,-0.181 -10.428,-0.059 V 511.744 l 10.428,0.06 10.425,0.181 10.413,0.303 10.39,0.422 10.369,0.54 10.334,0.663 10.3,0.781 10.254,0.9 10.206,1.019 10.147,1.134 10.087,1.253 10.019,1.372 9.941,1.485 9.865,1.6 9.775,1.712 9.688,1.825 9.587,1.938 9.481,2.047 9.375,2.156 9.26,2.265 9.137,2.372 9.013,2.475 8.878,2.578 8.744,2.685 8.603,2.781 8.453,2.878 8.3,2.978 8.144,3.072 7.981,3.166 7.816,3.259 7.64,3.344 7.466,3.434 7.284,3.522 7.1,3.6 6.91,3.685 6.715,3.762 6.519,3.838 6.316,3.915 6.109,3.985 5.903,4.053 5.688,4.122 5.471,4.187 5.25,4.247 5.032,4.309 4.803,4.363 4.575,4.419 4.344,4.471 4.109,4.519 3.875,4.566 3.634,4.609 3.391,4.65 3.153,4.688 2.903,4.722 2.66,4.753 2.409,4.784 2.159,4.809 1.91,4.835 1.659,4.856 1.403,4.872 1.15,4.887 0.894,4.897 0.641,4.91 0.384,4.912 0.128,4.916 v 225.39 l -0.128,-4.915 -0.384,-4.913 -0.641,-4.909 -0.894,-4.897 -1.15,-4.887 -1.403,-4.872 -1.659,-4.857 -1.91,-4.834 -2.159,-4.809 -2.409,-4.785 -2.66,-4.753 -2.903,-4.725 -3.153,-4.687 -3.391,-4.647 -3.634,-4.61 -3.875,-4.565 -4.109,-4.519 -4.344,-4.472 -4.575,-4.419 -4.803,-4.365 -5.032,-4.306 -5.25,-4.247 -5.471,-4.188 -5.688,-4.122 z"
       style="fill:url(#linearGradient4958)"
       id="path58"
       inkscape:connector-curvature="0" /></g><defs
     id="defs171"><linearGradient
       id="_Linear1"
       x1="0"
       y1="0"
       x2="1"
       y2="0"
       gradientUnits="userSpaceOnUse"
       gradientTransform="matrix(416.795,-721.91,129.436,74.7299,3321.87,990.396)"><stop
         offset="0"
         style="stop-color:#f1592a;stop-opacity:1"
         id="stop61" /><stop
         offset="1"
         style="stop-color:#f5e732;stop-opacity:1"
         id="stop63" /></linearGradient><linearGradient
       id="_Linear2"
       x1="0"
       y1="0"
       x2="1"
       y2="0"
       gradientUnits="userSpaceOnUse"
       gradientTransform="matrix(833.59,0,0,149.46,3418.1,990.396)"><stop
         offset="0"
         style="stop-color:#f5ee30;stop-opacity:1"
         id="stop66" /><stop
         offset="1"
         style="stop-color:#3bb549;stop-opacity:1"
         id="stop68" /></linearGradient><linearGradient
       id="_Linear3"
       x1="0"
       y1="0"
       x2="1"
       y2="0"
       gradientUnits="userSpaceOnUse"
       gradientTransform="matrix(160.073,277.622,-49.7766,28.7006,4042.93,629.441)"><stop
         offset="0"
         style="stop-color:#f1592a;stop-opacity:1"
         id="stop71" /><stop
         offset="1"
         style="stop-color:#f5e732;stop-opacity:1"
         id="stop73" /></linearGradient><linearGradient
       id="_Linear4"
       x1="0"
       y1="0"
       x2="1"
       y2="0"
       gradientUnits="userSpaceOnUse"
       gradientTransform="matrix(294.168,520.054,-649.218,367.229,3792.66,185.153)"><stop
         offset="0"
         style="stop-color:#3bb549;stop-opacity:1"
         id="stop76" /><stop
         offset="1"
         style="stop-color:#f5ee30;stop-opacity:1"
         id="stop78" /></linearGradient><linearGradient
       id="_Linear5"
       x1="0"
       y1="0"
       x2="1"
       y2="0"
       gradientUnits="userSpaceOnUse"
       gradientTransform="matrix(396.568,-116.574,85.8632,292.095,1191.54,1013.52)"><stop
         offset="0"
         style="stop-color:#3bb549;stop-opacity:1"
         id="stop81" /><stop
         offset="1"
         style="stop-color:#f5ee30;stop-opacity:1"
         id="stop83" /></linearGradient><linearGradient
       id="_Linear6"
       x1="0"
       y1="0"
       x2="1"
       y2="0"
       gradientUnits="userSpaceOnUse"
       gradientTransform="matrix(212.5,0,0,420.728,957.787,526.764)"><stop
         offset="0"
         style="stop-color:#f1592a;stop-opacity:1"
         id="stop86" /><stop
         offset="1"
         style="stop-color:#f5e732;stop-opacity:1"
         id="stop88" /></linearGradient><linearGradient
       id="_Linear7"
       x1="0"
       y1="0"
       x2="1"
       y2="0"
       gradientUnits="userSpaceOnUse"
       gradientTransform="matrix(125.522,-266.675,386.563,181.952,1039.55,387.797)"><stop
         offset="0"
         style="stop-color:#f5ee30;stop-opacity:1"
         id="stop91" /><stop
         offset="1"
         style="stop-color:#3bb549;stop-opacity:1"
         id="stop93" /></linearGradient><linearGradient
       id="_Linear8"
       x1="0"
       y1="0"
       x2="1"
       y2="0"
       gradientUnits="userSpaceOnUse"
       gradientTransform="matrix(410.656,285.457,-285.457,410.656,1191.54,571.283)"><stop
         offset="0"
         style="stop-color:#f5e732;stop-opacity:1"
         id="stop96" /><stop
         offset="1"
         style="stop-color:#f1592a;stop-opacity:1"
         id="stop98" /></linearGradient><linearGradient
       id="_Linear9"
       x1="0"
       y1="0"
       x2="1"
       y2="0"
       gradientUnits="userSpaceOnUse"
       gradientTransform="matrix(255.362,0,0,195.933,1205.27,310.754)"><stop
         offset="0"
         style="stop-color:#3bb549;stop-opacity:1"
         id="stop101" /><stop
         offset="1"
         style="stop-color:#f5ee30;stop-opacity:1"
         id="stop103" /></linearGradient><linearGradient
       id="_Linear10"
       x1="0"
       y1="0"
       x2="1"
       y2="0"
       gradientUnits="userSpaceOnUse"
       gradientTransform="matrix(396.568,-116.574,85.8632,292.095,1926.03,1013.52)"><stop
         offset="0"
         style="stop-color:#3bb549;stop-opacity:1"
         id="stop106" /><stop
         offset="1"
         style="stop-color:#f5ee30;stop-opacity:1"
         id="stop108" /></linearGradient><linearGradient
       id="_Linear11"
       x1="0"
       y1="0"
       x2="1"
       y2="0"
       gradientUnits="userSpaceOnUse"
       gradientTransform="matrix(212.5,0,0,420.728,1692.28,526.764)"><stop
         offset="0"
         style="stop-color:#f1592a;stop-opacity:1"
         id="stop111" /><stop
         offset="1"
         style="stop-color:#f5e732;stop-opacity:1"
         id="stop113" /></linearGradient><linearGradient
       id="_Linear12"
       x1="0"
       y1="0"
       x2="1"
       y2="0"
       gradientUnits="userSpaceOnUse"
       gradientTransform="matrix(410.656,285.457,-285.457,410.656,1926.03,571.283)"><stop
         offset="0"
         style="stop-color:#f5e732;stop-opacity:1"
         id="stop116" /><stop
         offset="1"
         style="stop-color:#f1592a;stop-opacity:1"
         id="stop118" /></linearGradient><linearGradient
       id="_Linear13"
       x1="0"
       y1="0"
       x2="1"
       y2="0"
       gradientUnits="userSpaceOnUse"
       gradientTransform="matrix(330.701,-132.815,132.815,330.701,1714.97,404.229)"><stop
         offset="0"
         style="stop-color:#f5ee30;stop-opacity:1"
         id="stop121" /><stop
         offset="1"
         style="stop-color:#3bb549;stop-opacity:1"
         id="stop123" /></linearGradient><linearGradient
       id="_Linear14"
       x1="0"
       y1="0"
       x2="1"
       y2="0"
       gradientUnits="userSpaceOnUse"
       gradientTransform="matrix(396.568,-116.574,85.8632,292.095,2699.12,1013.52)"><stop
         offset="0"
         style="stop-color:#3bb549;stop-opacity:1"
         id="stop126" /><stop
         offset="1"
         style="stop-color:#f5ee30;stop-opacity:1"
         id="stop128" /></linearGradient><linearGradient
       id="_Linear15"
       x1="0"
       y1="0"
       x2="1"
       y2="0"
       gradientUnits="userSpaceOnUse"
       gradientTransform="matrix(212.5,0,0,420.728,2465.37,526.764)"><stop
         offset="0"
         style="stop-color:#f1592a;stop-opacity:1"
         id="stop131" /><stop
         offset="1"
         style="stop-color:#f5e732;stop-opacity:1"
         id="stop133" /></linearGradient><linearGradient
       id="_Linear16"
       x1="0"
       y1="0"
       x2="1"
       y2="0"
       gradientUnits="userSpaceOnUse"
       gradientTransform="matrix(125.522,-266.675,386.563,181.952,2547.13,387.797)"><stop
         offset="0"
         style="stop-color:#f5ee30;stop-opacity:1"
         id="stop136" /><stop
         offset="1"
         style="stop-color:#3bb549;stop-opacity:1"
         id="stop138" /></linearGradient><linearGradient
       id="_Linear17"
       x1="0"
       y1="0"
       x2="1"
       y2="0"
       gradientUnits="userSpaceOnUse"
       gradientTransform="matrix(410.656,285.457,-285.457,410.656,2699.12,571.283)"><stop
         offset="0"
         style="stop-color:#f5e732;stop-opacity:1"
         id="stop141" /><stop
         offset="1"
         style="stop-color:#f1592a;stop-opacity:1"
         id="stop143" /></linearGradient><linearGradient
       id="_Linear18"
       x1="0"
       y1="0"
       x2="1"
       y2="0"
       gradientUnits="userSpaceOnUse"
       gradientTransform="matrix(255.362,0,0,195.933,2712.85,310.754)"><stop
         offset="0"
         style="stop-color:#3bb549;stop-opacity:1"
         id="stop146" /><stop
         offset="1"
         style="stop-color:#f5ee30;stop-opacity:1"
         id="stop148" /></linearGradient><linearGradient
       id="_Linear19"
       x1="0"
       y1="0"
       x2="1"
       y2="0"
       gradientUnits="userSpaceOnUse"
       gradientTransform="matrix(396.568,-116.574,85.8632,292.095,383.15,1013.52)"><stop
         offset="0"
         style="stop-color:#3bb549;stop-opacity:1"
         id="stop151" /><stop
         offset="1"
         style="stop-color:#f5ee30;stop-opacity:1"
         id="stop153" /></linearGradient><linearGradient
       id="_Linear20"
       x1="0"
       y1="0"
       x2="1"
       y2="0"
       gradientUnits="userSpaceOnUse"
       gradientTransform="matrix(212.5,0,0,420.728,149.4,526.764)"><stop
         offset="0"
         style="stop-color:#f1592a;stop-opacity:1"
         id="stop156" /><stop
         offset="1"
         style="stop-color:#f5e732;stop-opacity:1"
         id="stop158" /></linearGradient><linearGradient
       id="_Linear21"
       x1="0"
       y1="0"
       x2="1"
       y2="0"
       gradientUnits="userSpaceOnUse"
       gradientTransform="matrix(125.522,-266.675,386.563,181.952,231.163,387.797)"><stop
         offset="0"
         style="stop-color:#f5ee30;stop-opacity:1"
         id="stop161" /><stop
         offset="1"
         style="stop-color:#3bb549;stop-opacity:1"
         id="stop163" /></linearGradient><linearGradient
       id="_Linear22"
       x1="0"
       y1="0"
       x2="1"
       y2="0"
       gradientUnits="userSpaceOnUse"
       gradientTransform="matrix(410.656,285.457,-285.457,410.656,383.15,571.283)"><stop
         offset="0"
         style="stop-color:#f5e732;stop-opacity:1"
         id="stop166" /><stop
         offset="1"
         style="stop-color:#f1592a;stop-opacity:1"
         id="stop168" /></linearGradient><linearGradient
       inkscape:collect="always"
       xlink:href="#_Linear19"
       id="linearGradient4926"
       gradientUnits="userSpaceOnUse"
       gradientTransform="matrix(396.568,-116.574,85.8632,292.095,383.15,1013.52)"
       x1="0"
       y1="0"
       x2="1"
       y2="0" /><linearGradient
       inkscape:collect="always"
       xlink:href="#_Linear20"
       id="linearGradient4928"
       gradientUnits="userSpaceOnUse"
       gradientTransform="matrix(212.5,0,0,420.728,165.4,526.764)"
       x1="0"
       y1="0"
       x2="1"
       y2="0" /><linearGradient
       inkscape:collect="always"
       xlink:href="#_Linear21"
       id="linearGradient4930"
       gradientUnits="userSpaceOnUse"
       gradientTransform="matrix(125.522,-266.675,386.563,181.952,247.163,387.797)"
       x1="0"
       y1="0"
       x2="1"
       y2="0" /><linearGradient
       inkscape:collect="always"
       xlink:href="#_Linear22"
       id="linearGradient4932"
       gradientUnits="userSpaceOnUse"
       gradientTransform="matrix(410.656,285.457,-285.457,410.656,383.15,571.283)"
       x1="0"
       y1="0"
       x2="1"
       y2="0" /><linearGradient
       inkscape:collect="always"
       xlink:href="#_Linear19"
       id="linearGradient4944"
       gradientUnits="userSpaceOnUse"
       gradientTransform="matrix(396.568,-116.574,85.8632,292.095,383.15,1013.52)"
       x1="0"
       y1="0"
       x2="1"
       y2="0" /><linearGradient
       inkscape:collect="always"
       xlink:href="#_Linear20"
       id="linearGradient4946"
       gradientUnits="userSpaceOnUse"
       gradientTransform="matrix(212.5,0,0,420.728,165.4,526.764)"
       x1="0"
       y1="0"
       x2="1"
       y2="0" /><linearGradient
       inkscape:collect="always"
       xlink:href="#_Linear21"
       id="linearGradient4948"
       gradientUnits="userSpaceOnUse"
       gradientTransform="matrix(125.522,-266.675,386.563,181.952,247.163,387.797)"
       x1="0"
       y1="0"
       x2="1"
       y2="0" /><linearGradient
       inkscape:collect="always"
       xlink:href="#_Linear22"
       id="linearGradient4950"
       gradientUnits="userSpaceOnUse"
       gradientTransform="matrix(410.656,285.457,-285.457,410.656,383.15,571.283)"
       x1="0"
       y1="0"
       x2="1"
       y2="0" /><linearGradient
       inkscape:collect="always"
       xlink:href="#_Linear20"
       id="linearGradient4952"
       gradientUnits="userSpaceOnUse"
       gradientTransform="matrix(212.5,0,0,420.728,165.4,526.764)"
       x1="0"
       y1="0"
       x2="1"
       y2="0" /><linearGradient
       inkscape:collect="always"
       xlink:href="#_Linear21"
       id="linearGradient4954"
       gradientUnits="userSpaceOnUse"
       gradientTransform="matrix(125.522,-266.675,386.563,181.952,247.163,387.797)"
       x1="0"
       y1="0"
       x2="1"
       y2="0" /><linearGradient
       inkscape:collect="always"
       xlink:href="#_Linear19"
       id="linearGradient4956"
       gradientUnits="userSpaceOnUse"
       gradientTransform="matrix(396.568,-116.574,85.8632,292.095,383.15,1013.52)"
       x1="0"
       y1="0"
       x2="1"
       y2="0" /><linearGradient
       inkscape:collect="always"
       xlink:href="#_Linear22"
       id="linearGradient4958"
       gradientUnits="userSpaceOnUse"
       gradientTransform="matrix(410.656,285.457,-285.457,410.656,383.15,571.283)"
       x1="0"
       y1="0"
       x2="1"
       y2="0" /></defs><g
     style="opacity:0.2"
     transform="translate(-160.27979,-912.43539)"
     serif:id="Logo IfcOpenShell"
     id="g4924"><path
       inkscape:connector-curvature="0"
       id="path4916"
       style="fill:url(#linearGradient4926)"
       d="m 734.5,824.782 v 0 l 2.025,1.39 5.688,4.122 5.471,4.188 5.25,4.247 5.032,4.306 4.803,4.365 4.575,4.419 4.344,4.472 4.109,4.519 3.875,4.565 3.634,4.61 3.391,4.647 3.153,4.687 2.903,4.725 2.66,4.753 2.409,4.785 2.159,4.809 1.91,4.834 1.659,4.857 1.403,4.872 1.15,4.887 0.894,4.897 0.641,4.909 0.384,4.913 0.128,4.915 -0.128,4.919 -0.384,4.913 -0.641,4.909 -0.894,4.897 -1.15,4.887 -1.403,4.872 -1.659,4.857 -1.91,4.831 -2.159,4.812 -2.409,4.785 -2.66,4.753 -2.903,4.722 -3.15,4.687 -3.394,4.65 -3.634,4.61 -3.875,4.565 -4.109,4.519 -4.344,4.472 -4.575,4.419 -4.803,4.362 -5.028,4.309 -5.254,4.247 -5.471,4.188 -5.688,4.122 -5.903,4.053 -6.109,3.984 -6.316,3.913 -6.519,3.84 -6.715,3.763 -6.91,3.684 -7.1,3.6 -7.284,3.522 -7.466,3.431 -7.64,3.347 -7.816,3.26 -7.981,3.165 -8.144,3.072 -8.3,2.978 -8.453,2.878 -8.603,2.782 -8.744,2.681 -8.878,2.581 -9.013,2.475 -9.137,2.372 -9.26,2.262 -9.375,2.16 -9.481,2.047 -9.587,1.937 -9.688,1.825 -9.775,1.713 -9.865,1.6 -9.944,1.484 -10.016,1.372 -10.087,1.253 -10.15,1.134 -10.203,1.019 -10.257,0.9 -10.297,0.781 -10.337,0.663 -10.366,0.541 -10.393,0.421 -10.41,0.304 -10.425,0.178 -10.428,0.062 v -225.39 l 10.428,-0.06 10.425,-0.181 10.41,-0.303 10.393,-0.422 10.366,-0.541 10.337,-0.662 10.297,-0.781 10.257,-0.9 10.203,-1.019 10.15,-1.135 10.087,-1.253 10.016,-1.372 9.944,-1.484 9.865,-1.6 9.775,-1.712 9.688,-1.825 9.587,-1.938 9.481,-2.047 9.375,-2.156 9.26,-2.266 9.137,-2.372 9.013,-2.475 8.878,-2.578 8.744,-2.681 8.603,-2.784 8.453,-2.878 8.3,-2.979 8.144,-3.071 7.981,-3.166 7.816,-3.259 7.64,-3.344 7.466,-3.435 7.284,-3.518 7.1,-3.603 6.91,-3.685 6.715,-3.762 6.519,-3.838 6.316,-3.915 6.109,-3.985 z" /><path
       inkscape:connector-curvature="0"
       id="path4918"
       style="fill:url(#linearGradient4928)"
       d="m 165.4,316.4 0.063,4.794 0.193,4.791 0.319,4.787 0.447,4.775 0.575,4.766 0.703,4.75 0.828,4.734 0.956,4.713 1.079,4.69 1.206,4.666 1.328,4.634 1.453,4.604 1.575,4.571 1.697,4.535 1.816,4.494 1.937,4.45 2.056,4.406 2.172,4.359 2.288,4.31 2.4,4.253 2.515,4.2 2.625,4.143 2.738,4.082 2.844,4.018 2.95,3.954 0.17,0.217 c 0,0 0,0.004 0,0.004 l 2.886,3.663 3.156,3.816 3.259,3.743 3.36,3.669 3.453,3.591 3.55,3.512 3.644,3.431 3.731,3.35 3.822,3.263 3.906,3.175 3.991,3.087 4.072,2.994 4.15,2.903 4.228,2.81 4.3,2.712 4.372,2.616 4.44,2.512 4.506,2.416 4.569,2.312 4.628,2.207 4.688,2.103 4.74,1.997 4.794,1.887 4.844,1.781 4.887,1.672 4.935,1.56 4.972,1.447 5.006,1.334 5.044,1.222 5.075,1.109 5.103,0.991 5.125,0.878 5.15,0.762 5.169,0.644 5.184,0.531 5.194,0.41 5.206,0.294 5.212,0.178 5.216,0.056 v 225.391 l -5.216,-0.057 -5.212,-0.178 -5.206,-0.294 -5.194,-0.412 -5.184,-0.528 -5.169,-0.644 -5.15,-0.762 -5.125,-0.879 -5.103,-0.99 -5.075,-1.11 -5.044,-1.221 -5.006,-1.335 -4.972,-1.45 -4.935,-1.559 -4.887,-1.669 -4.844,-1.781 -4.794,-1.888 -4.74,-1.997 -4.688,-2.103 -4.628,-2.209 -4.569,-2.309 -4.506,-2.416 -4.44,-2.516 -4.372,-2.612 -4.3,-2.713 -4.228,-2.809 -4.15,-2.903 -4.072,-2.994 -3.991,-3.087 -3.906,-3.175 -3.822,-3.263 -3.731,-3.35 -3.644,-3.431 -3.55,-3.513 -3.453,-3.59 -3.36,-3.669 -3.259,-3.744 -3.156,-3.815 -3.056,-3.885 -2.95,-3.953 -2.844,-4.019 -2.738,-4.081 -2.625,-4.144 -2.515,-4.2 -2.4,-4.253 -2.288,-4.309 -2.172,-4.36 -2.056,-4.406 -1.937,-4.45 -1.816,-4.494 -1.697,-4.534 -1.575,-4.572 -1.453,-4.603 -1.328,-4.637 -1.206,-4.663 -1.079,-4.691 -0.956,-4.712 -0.828,-4.734 -0.703,-4.75 -0.575,-4.766 -0.447,-4.775 -0.319,-4.788 -0.193,-4.79 -0.063,-4.794 z" /><path
       inkscape:connector-curvature="0"
       id="path4920"
       style="fill:url(#linearGradient4930)"
       d="m 204.163,428.879 -2.95,-3.954 -2.844,-4.018 -2.738,-4.082 -2.625,-4.143 -2.515,-4.2 -2.4,-4.253 -2.288,-4.31 -2.172,-4.359 -2.056,-4.406 -1.937,-4.45 -1.816,-4.494 -1.697,-4.535 -1.575,-4.571 -1.453,-4.604 -1.328,-4.634 -1.206,-4.666 -1.079,-4.69 -0.956,-4.713 -0.828,-4.734 -0.703,-4.75 -0.575,-4.766 -0.447,-4.775 -0.319,-4.787 -0.193,-4.791 -0.063,-4.794 0.063,-4.793 0.193,-4.791 0.319,-4.784 0.447,-4.778 0.575,-4.763 0.703,-4.753 0.828,-4.731 0.956,-4.713 1.079,-4.69 1.206,-4.666 1.328,-4.634 1.453,-4.607 1.575,-4.568 1.697,-4.535 1.816,-4.494 1.937,-4.453 2.056,-4.406 2.172,-4.356 2.288,-4.31 2.4,-4.256 2.515,-4.2 2.625,-4.14 2.738,-4.082 2.844,-4.018 2.95,-3.954 3.056,-3.887 3.156,-3.816 3.259,-3.74 3.36,-3.669 3.453,-3.594 3.55,-3.512 3.644,-3.432 3.731,-3.346 3.822,-3.263 3.906,-3.178 3.991,-3.084 4.072,-2.997 4.15,-2.903 4.228,-2.81 4.3,-2.709 4.372,-2.616 4.44,-2.515 4.506,-2.413 4.569,-2.312 4.628,-2.21 4.688,-2.103 4.74,-1.994 4.794,-1.89 4.844,-1.778 4.887,-1.672 4.935,-1.56 4.972,-1.447 5.006,-1.337 5.044,-1.222 5.075,-1.106 5.103,-0.994 5.128,-0.878 5.147,-0.759 5.169,-0.647 5.184,-0.528 5.197,-0.413 5.203,-0.294 5.212,-0.175 5.216,-0.059 v 225.391 l -5.216,0.059 -5.212,0.175 -5.203,0.294 -5.197,0.412 -5.184,0.528 -5.169,0.644 -5.147,0.763 -5.128,0.878 -5.103,0.993 -5.075,1.107 -5.044,1.222 -5.006,1.334 -4.972,1.45 -4.935,1.559 -4.887,1.669 -4.844,1.781 -4.794,1.888 -4.74,1.997 -4.688,2.103 -4.628,2.209 -4.569,2.313 -4.506,2.412 -4.44,2.516 -4.372,2.612 -4.3,2.713 -4.228,2.809 -4.15,2.903 -4.072,2.997 -3.991,3.085 -3.906,3.178 -3.822,3.262 -3.731,3.347 -3.644,3.431 -3.55,3.513 -3.453,3.59 -3.36,3.669 -3.259,3.744 -3.156,3.816 -2.886,3.667 z" /><path
       inkscape:connector-curvature="0"
       id="path4922"
       style="fill:url(#linearGradient4932)"
       d="m 734.5,824.782 -3.878,-2.663 -6.109,-3.987 -6.316,-3.913 -6.519,-3.837 -6.715,-3.763 -6.91,-3.684 -7.1,-3.603 -7.284,-3.519 -7.466,-3.434 -7.64,-3.347 -7.816,-3.257 -7.981,-3.165 -8.144,-3.072 -8.3,-2.978 -8.453,-2.878 -8.603,-2.785 -8.744,-2.681 -8.878,-2.578 -9.013,-2.475 -9.137,-2.372 -9.26,-2.266 -9.375,-2.156 -9.481,-2.047 -9.587,-1.937 -9.688,-1.825 -9.775,-1.713 -9.865,-1.6 -9.941,-1.484 -10.019,-1.372 -10.087,-1.253 -10.147,-1.134 -10.206,-1.019 -10.254,-0.9 -10.3,-0.781 -10.334,-0.663 -10.369,-0.541 -10.39,-0.421 -10.413,-0.304 -10.425,-0.181 -10.428,-0.059 V 511.744 l 10.428,0.06 10.425,0.181 10.413,0.303 10.39,0.422 10.369,0.54 10.334,0.663 10.3,0.781 10.254,0.9 10.206,1.019 10.147,1.134 10.087,1.253 10.019,1.372 9.941,1.485 9.865,1.6 9.775,1.712 9.688,1.825 9.587,1.938 9.481,2.047 9.375,2.156 9.26,2.265 9.137,2.372 9.013,2.475 8.878,2.578 8.744,2.685 8.603,2.781 8.453,2.878 8.3,2.978 8.144,3.072 7.981,3.166 7.816,3.259 7.64,3.344 7.466,3.434 7.284,3.522 7.1,3.6 6.91,3.685 6.715,3.762 6.519,3.838 6.316,3.915 6.109,3.985 5.903,4.053 5.688,4.122 5.471,4.187 5.25,4.247 5.032,4.309 4.803,4.363 4.575,4.419 4.344,4.471 4.109,4.519 3.875,4.566 3.634,4.609 3.391,4.65 3.153,4.688 2.903,4.722 2.66,4.753 2.409,4.784 2.159,4.809 1.91,4.835 1.659,4.856 1.403,4.872 1.15,4.887 0.894,4.897 0.641,4.91 0.384,4.912 0.128,4.916 v 225.39 l -0.128,-4.915 -0.384,-4.913 -0.641,-4.909 -0.894,-4.897 -1.15,-4.887 -1.403,-4.872 -1.659,-4.857 -1.91,-4.834 -2.159,-4.809 -2.409,-4.785 -2.66,-4.753 -2.903,-4.725 -3.153,-4.687 -3.391,-4.647 -3.634,-4.61 -3.875,-4.565 -4.109,-4.519 -4.344,-4.472 -4.575,-4.419 -4.803,-4.365 -5.032,-4.306 -5.25,-4.247 -5.471,-4.188 -5.688,-4.122 z" /></g><g
     id="g4942"
     serif:id="Logo IfcOpenShell"
     transform="translate(-160.27979,670.05634)"
     style="opacity:0.2"><path
       d="m 734.5,824.782 v 0 l 2.025,1.39 5.688,4.122 5.471,4.188 5.25,4.247 5.032,4.306 4.803,4.365 4.575,4.419 4.344,4.472 4.109,4.519 3.875,4.565 3.634,4.61 3.391,4.647 3.153,4.687 2.903,4.725 2.66,4.753 2.409,4.785 2.159,4.809 1.91,4.834 1.659,4.857 1.403,4.872 1.15,4.887 0.894,4.897 0.641,4.909 0.384,4.913 0.128,4.915 -0.128,4.919 -0.384,4.913 -0.641,4.909 -0.894,4.897 -1.15,4.887 -1.403,4.872 -1.659,4.857 -1.91,4.831 -2.159,4.812 -2.409,4.785 -2.66,4.753 -2.903,4.722 -3.15,4.687 -3.394,4.65 -3.634,4.61 -3.875,4.565 -4.109,4.519 -4.344,4.472 -4.575,4.419 -4.803,4.362 -5.028,4.309 -5.254,4.247 -5.471,4.188 -5.688,4.122 -5.903,4.053 -6.109,3.984 -6.316,3.913 -6.519,3.84 -6.715,3.763 -6.91,3.684 -7.1,3.6 -7.284,3.522 -7.466,3.431 -7.64,3.347 -7.816,3.26 -7.981,3.165 -8.144,3.072 -8.3,2.978 -8.453,2.878 -8.603,2.782 -8.744,2.681 -8.878,2.581 -9.013,2.475 -9.137,2.372 -9.26,2.262 -9.375,2.16 -9.481,2.047 -9.587,1.937 -9.688,1.825 -9.775,1.713 -9.865,1.6 -9.944,1.484 -10.016,1.372 -10.087,1.253 -10.15,1.134 -10.203,1.019 -10.257,0.9 -10.297,0.781 -10.337,0.663 -10.366,0.541 -10.393,0.421 -10.41,0.304 -10.425,0.178 -10.428,0.062 v -225.39 l 10.428,-0.06 10.425,-0.181 10.41,-0.303 10.393,-0.422 10.366,-0.541 10.337,-0.662 10.297,-0.781 10.257,-0.9 10.203,-1.019 10.15,-1.135 10.087,-1.253 10.016,-1.372 9.944,-1.484 9.865,-1.6 9.775,-1.712 9.688,-1.825 9.587,-1.938 9.481,-2.047 9.375,-2.156 9.26,-2.266 9.137,-2.372 9.013,-2.475 8.878,-2.578 8.744,-2.681 8.603,-2.784 8.453,-2.878 8.3,-2.979 8.144,-3.071 7.981,-3.166 7.816,-3.259 7.64,-3.344 7.466,-3.435 7.284,-3.518 7.1,-3.603 6.91,-3.685 6.715,-3.762 6.519,-3.838 6.316,-3.915 6.109,-3.985 z"
       style="fill:url(#linearGradient4944)"
       id="path4934"
       inkscape:connector-curvature="0" /><path
       d="m 165.4,316.4 0.063,4.794 0.193,4.791 0.319,4.787 0.447,4.775 0.575,4.766 0.703,4.75 0.828,4.734 0.956,4.713 1.079,4.69 1.206,4.666 1.328,4.634 1.453,4.604 1.575,4.571 1.697,4.535 1.816,4.494 1.937,4.45 2.056,4.406 2.172,4.359 2.288,4.31 2.4,4.253 2.515,4.2 2.625,4.143 2.738,4.082 2.844,4.018 2.95,3.954 0.17,0.217 c 0,0 0,0.004 0,0.004 l 2.886,3.663 3.156,3.816 3.259,3.743 3.36,3.669 3.453,3.591 3.55,3.512 3.644,3.431 3.731,3.35 3.822,3.263 3.906,3.175 3.991,3.087 4.072,2.994 4.15,2.903 4.228,2.81 4.3,2.712 4.372,2.616 4.44,2.512 4.506,2.416 4.569,2.312 4.628,2.207 4.688,2.103 4.74,1.997 4.794,1.887 4.844,1.781 4.887,1.672 4.935,1.56 4.972,1.447 5.006,1.334 5.044,1.222 5.075,1.109 5.103,0.991 5.125,0.878 5.15,0.762 5.169,0.644 5.184,0.531 5.194,0.41 5.206,0.294 5.212,0.178 5.216,0.056 v 225.391 l -5.216,-0.057 -5.212,-0.178 -5.206,-0.294 -5.194,-0.412 -5.184,-0.528 -5.169,-0.644 -5.15,-0.762 -5.125,-0.879 -5.103,-0.99 -5.075,-1.11 -5.044,-1.221 -5.006,-1.335 -4.972,-1.45 -4.935,-1.559 -4.887,-1.669 -4.844,-1.781 -4.794,-1.888 -4.74,-1.997 -4.688,-2.103 -4.628,-2.209 -4.569,-2.309 -4.506,-2.416 -4.44,-2.516 -4.372,-2.612 -4.3,-2.713 -4.228,-2.809 -4.15,-2.903 -4.072,-2.994 -3.991,-3.087 -3.906,-3.175 -3.822,-3.263 -3.731,-3.35 -3.644,-3.431 -3.55,-3.513 -3.453,-3.59 -3.36,-3.669 -3.259,-3.744 -3.156,-3.815 -3.056,-3.885 -2.95,-3.953 -2.844,-4.019 -2.738,-4.081 -2.625,-4.144 -2.515,-4.2 -2.4,-4.253 -2.288,-4.309 -2.172,-4.36 -2.056,-4.406 -1.937,-4.45 -1.816,-4.494 -1.697,-4.534 -1.575,-4.572 -1.453,-4.603 -1.328,-4.637 -1.206,-4.663 -1.079,-4.691 -0.956,-4.712 -0.828,-4.734 -0.703,-4.75 -0.575,-4.766 -0.447,-4.775 -0.319,-4.788 -0.193,-4.79 -0.063,-4.794 z"
       style="fill:url(#linearGradient4946)"
       id="path4936"
       inkscape:connector-curvature="0" /><path
       d="m 204.163,428.879 -2.95,-3.954 -2.844,-4.018 -2.738,-4.082 -2.625,-4.143 -2.515,-4.2 -2.4,-4.253 -2.288,-4.31 -2.172,-4.359 -2.056,-4.406 -1.937,-4.45 -1.816,-4.494 -1.697,-4.535 -1.575,-4.571 -1.453,-4.604 -1.328,-4.634 -1.206,-4.666 -1.079,-4.69 -0.956,-4.713 -0.828,-4.734 -0.703,-4.75 -0.575,-4.766 -0.447,-4.775 -0.319,-4.787 -0.193,-4.791 -0.063,-4.794 0.063,-4.793 0.193,-4.791 0.319,-4.784 0.447,-4.778 0.575,-4.763 0.703,-4.753 0.828,-4.731 0.956,-4.713 1.079,-4.69 1.206,-4.666 1.328,-4.634 1.453,-4.607 1.575,-4.568 1.697,-4.535 1.816,-4.494 1.937,-4.453 2.056,-4.406 2.172,-4.356 2.288,-4.31 2.4,-4.256 2.515,-4.2 2.625,-4.14 2.738,-4.082 2.844,-4.018 2.95,-3.954 3.056,-3.887 3.156,-3.816 3.259,-3.74 3.36,-3.669 3.453,-3.594 3.55,-3.512 3.644,-3.432 3.731,-3.346 3.822,-3.263 3.906,-3.178 3.991,-3.084 4.072,-2.997 4.15,-2.903 4.228,-2.81 4.3,-2.709 4.372,-2.616 4.44,-2.515 4.506,-2.413 4.569,-2.312 4.628,-2.21 4.688,-2.103 4.74,-1.994 4.794,-1.89 4.844,-1.778 4.887,-1.672 4.935,-1.56 4.972,-1.447 5.006,-1.337 5.044,-1.222 5.075,-1.106 5.103,-0.994 5.128,-0.878 5.147,-0.759 5.169,-0.647 5.184,-0.528 5.197,-0.413 5.203,-0.294 5.212,-0.175 5.216,-0.059 v 225.391 l -5.216,0.059 -5.212,0.175 -5.203,0.294 -5.197,0.412 -5.184,0.528 -5.169,0.644 -5.147,0.763 -5.128,0.878 -5.103,0.993 -5.075,1.107 -5.044,1.222 -5.006,1.334 -4.972,1.45 -4.935,1.559 -4.887,1.669 -4.844,1.781 -4.794,1.888 -4.74,1.997 -4.688,2.103 -4.628,2.209 -4.569,2.313 -4.506,2.412 -4.44,2.516 -4.372,2.612 -4.3,2.713 -4.228,2.809 -4.15,2.903 -4.072,2.997 -3.991,3.085 -3.906,3.178 -3.822,3.262 -3.731,3.347 -3.644,3.431 -3.55,3.513 -3.453,3.59 -3.36,3.669 -3.259,3.744 -3.156,3.816 -2.886,3.667 z"
       style="fill:url(#linearGradient4948)"
       id="path4938"
       inkscape:connector-curvature="0" /><path
       d="m 734.5,824.782 -3.878,-2.663 -6.109,-3.987 -6.316,-3.913 -6.519,-3.837 -6.715,-3.763 -6.91,-3.684 -7.1,-3.603 -7.284,-3.519 -7.466,-3.434 -7.64,-3.347 -7.816,-3.257 -7.981,-3.165 -8.144,-3.072 -8.3,-2.978 -8.453,-2.878 -8.603,-2.785 -8.744,-2.681 -8.878,-2.578 -9.013,-2.475 -9.137,-2.372 -9.26,-2.266 -9.375,-2.156 -9.481,-2.047 -9.587,-1.937 -9.688,-1.825 -9.775,-1.713 -9.865,-1.6 -9.941,-1.484 -10.019,-1.372 -10.087,-1.253 -10.147,-1.134 -10.206,-1.019 -10.254,-0.9 -10.3,-0.781 -10.334,-0.663 -10.369,-0.541 -10.39,-0.421 -10.413,-0.304 -10.425,-0.181 -10.428,-0.059 V 511.744 l 10.428,0.06 10.425,0.181 10.413,0.303 10.39,0.422 10.369,0.54 10.334,0.663 10.3,0.781 10.254,0.9 10.206,1.019 10.147,1.134 10.087,1.253 10.019,1.372 9.941,1.485 9.865,1.6 9.775,1.712 9.688,1.825 9.587,1.938 9.481,2.047 9.375,2.156 9.26,2.265 9.137,2.372 9.013,2.475 8.878,2.578 8.744,2.685 8.603,2.781 8.453,2.878 8.3,2.978 8.144,3.072 7.981,3.166 7.816,3.259 7.64,3.344 7.466,3.434 7.284,3.522 7.1,3.6 6.91,3.685 6.715,3.762 6.519,3.838 6.316,3.915 6.109,3.985 5.903,4.053 5.688,4.122 5.471,4.187 5.25,4.247 5.032,4.309 4.803,4.363 4.575,4.419 4.344,4.471 4.109,4.519 3.875,4.566 3.634,4.609 3.391,4.65 3.153,4.688 2.903,4.722 2.66,4.753 2.409,4.784 2.159,4.809 1.91,4.835 1.659,4.856 1.403,4.872 1.15,4.887 0.894,4.897 0.641,4.91 0.384,4.912 0.128,4.916 v 225.39 l -0.128,-4.915 -0.384,-4.913 -0.641,-4.909 -0.894,-4.897 -1.15,-4.887 -1.403,-4.872 -1.659,-4.857 -1.91,-4.834 -2.159,-4.809 -2.409,-4.785 -2.66,-4.753 -2.903,-4.725 -3.153,-4.687 -3.391,-4.647 -3.634,-4.61 -3.875,-4.565 -4.109,-4.519 -4.344,-4.472 -4.575,-4.419 -4.803,-4.365 -5.032,-4.306 -5.25,-4.247 -5.471,-4.188 -5.688,-4.122 z"
       style="fill:url(#linearGradient4950)"
       id="path4940"
       inkscape:connector-curvature="0" /></g><rect
     style="opacity:0.2;vector-effect:none;fill:#ffffff;fill-opacity:1;stroke:none;stroke-width:12.69487953;stroke-linecap:butt;stroke-linejoin:miter;stroke-miterlimit:4;stroke-dasharray:none;stroke-dashoffset:0;stroke-opacity:1"
     id="rect4960"
     width="658.1106"
     height="791.36603"
     x="0"
     y="0" /></svg>