<?xml version="1.0" encoding="UTF-8" standalone="no"?>
<svg xmlns:dc="http://purl.org/dc/elements/1.1/" xmlns:cc="http://creativecommons.org/ns#" xmlns:rdf="http://www.w3.org/1999/02/22-rdf-syntax-ns#" xmlns:svg="http://www.w3.org/2000/svg" xmlns="http://www.w3.org/2000/svg" xmlns:sodipodi="http://sodipodi.sourceforge.net/DTD/sodipodi-0.dtd" xmlns:inkscape="http://www.inkscape.org/namespaces/inkscape" width="750" height="300" viewBox="0 0 198.43749 79.375" version="1.1" id="svg916" inkscape:version="1.0.2 (e86c870879, 2021-01-15)" sodipodi:docname="OSArch_logo.svg" inkscape:export-filename="H:\Privat\JA\Osarch.org\2021-04-06 OSArch.org Logo final\Logo 2.0.png" inkscape:export-xdpi="96" inkscape:export-ydpi="96">
  <defs id="defs910">
    <inkscape:path-effect effect="skeletal" id="path-effect930" is_visible="true" lpeversion="1" pattern="m 22.875192,141.26433 c 0.03389,0.70532 -11.629579,0.36909 -17.3462186,0.36909 -3.347172,0 -4.003628,0.494 -5.12804004,0.42733 -0.683732,-0.0405 -1.012704,-0.097 -1.012704,-0.53733 0,-0.6747 -0.247367,-0.93637 2.59233404,-0.70482 1.94913,0.15894 5.251362,0.1414 7.3375459,0.1414 2.7012847,0 6.1462527,0.14137 8.6565247,0.29327 2.80213,0.16955 4.883477,-0.34433 4.900558,0.0111 z" copytype="single_stretched" prop_scale="1" scale_y_rel="false" spacing="0" normal_offset="0" tang_offset="0" prop_units="false" vertical_pattern="false" hide_knot="false" fuse_tolerance="0"/>
    <inkscape:path-effect effect="skeletal" id="path-effect891" is_visible="true" lpeversion="1" pattern="m 229.18658,392.76132 c 0.0185,0.38406 -6.33249,0.20098 -9.4453,0.20098 -1.82259,0 -2.18004,0.26899 -2.79229,0.23269 -0.37231,-0.0221 -0.55144,-0.0528 -0.55144,-0.29259 0,-0.36738 -0.1347,-0.50987 1.41157,-0.38378 1.06133,0.0865 2.85945,0.077 3.99541,0.077 1.47089,0 3.34673,0.077 4.71361,0.15969 1.52581,0.0923 2.65914,-0.18749 2.66844,0.006 z" copytype="single_stretched" prop_scale="1" scale_y_rel="false" spacing="0" normal_offset="0" tang_offset="0" prop_units="false" vertical_pattern="false" hide_knot="false" fuse_tolerance="0"/>
    <inkscape:path-effect effect="skeletal" id="path-effect857" is_visible="true" lpeversion="1" pattern="m -29.54662,-66.791882 c 0.08348,1.73696 -28.639748,0.90895 -42.717911,0.90895 -8.24296,0 -9.85959,1.21656 -12.62864,1.05236 -1.6838,-0.0998 -2.49395,-0.23886 -2.49395,-1.32327 0,-1.66154 -0.60918,-2.30595 6.38405,-1.73572 4.80005,0.3914 12.93234,0.34822 18.069909,0.34822 6.652358,0 15.136155,0.34814 21.318113,0.72221 6.900703,0.41756 12.026364,-0.84795 12.068429,0.0273 z" copytype="single_stretched" prop_scale="1" scale_y_rel="false" spacing="0" normal_offset="0" tang_offset="0" prop_units="false" vertical_pattern="false" hide_knot="false" fuse_tolerance="0"/>
    <inkscape:path-effect effect="skeletal" id="path-effect876" is_visible="true" lpeversion="1" pattern="m 119.25218,126.02747 c 0.0905,0.75637 -30.699414,0.53473 -45.960014,0.53473 -8.9353,0 -10.89737,0.16389 -13.89898,0.0924 -1.82524,-0.0435 -2.88283,-0.10281 -2.88283,-0.57502 0,-0.72352 0.003,-1.05994 7.58398,-0.81163 5.2032,0.17043 13.39805,0.43318 18.96713,0.43318 7.21109,0 16.40746,0.1516 23.108644,0.31449 7.4803,0.18183 13.03647,-0.36924 13.08207,0.0119 z" copytype="single_stretched" prop_scale="1" scale_y_rel="false" spacing="0" normal_offset="0" tang_offset="0" prop_units="false" vertical_pattern="false" hide_knot="false" fuse_tolerance="0"/>
  </defs>
  <sodipodi:namedview id="base" pagecolor="#ffffff" bordercolor="#666666" borderopacity="1.0" inkscape:pageopacity="0.0" inkscape:pageshadow="2" inkscape:zoom="1.0958738" inkscape:cx="333.51074" inkscape:cy="269.76075" inkscape:document-units="px" inkscape:current-layer="layer1" inkscape:document-rotation="0" showgrid="false" units="px" inkscape:window-width="1920" inkscape:window-height="1055" inkscape:window-x="0" inkscape:window-y="25" inkscape:window-maximized="1" showguides="true" inkscape:guide-bbox="true" inkscape:snap-page="true" inkscape:snap-global="true">
    <sodipodi:guide position="0,79.374999" orientation="1,0" id="guide875"/>
    <sodipodi:guide position="198.4375,0" orientation="1,0" id="guide877"/>
    <sodipodi:guide position="33.866666,6.666667e-07" orientation="-1,0" id="guide879" inkscape:label="" inkscape:locked="false" inkscape:color="rgb(0,0,255)"/>
    <sodipodi:guide position="0,79.374998" orientation="0,1" id="guide883" inkscape:label="" inkscape:locked="false" inkscape:color="rgb(0,0,255)"/>
    <sodipodi:guide position="16.933333,0" orientation="-1,0" id="guide930" inkscape:label="" inkscape:locked="false" inkscape:color="rgb(0,0,255)"/>
    <sodipodi:guide position="0,-10.583333" orientation="0,1" id="guide934" inkscape:label="" inkscape:locked="false" inkscape:color="rgb(0,0,255)"/>
    <sodipodi:guide position="0,-44.449999" orientation="0,1" id="guide936" inkscape:label="" inkscape:locked="false" inkscape:color="rgb(0,0,255)"/>
    <sodipodi:guide position="0,-55.033332" orientation="0,1" id="guide938" inkscape:label="" inkscape:locked="false" inkscape:color="rgb(0,0,255)"/>
    <sodipodi:guide position="0,-71.966665" orientation="0,1" id="guide940" inkscape:label="" inkscape:locked="false" inkscape:color="rgb(0,0,255)"/>
  </sodipodi:namedview>
  <metadata id="metadata913">
    <rdf:RDF>
      <cc:Work rdf:about="">
        <dc:format>image/svg+xml</dc:format>
        <dc:type rdf:resource="http://purl.org/dc/dcmitype/StillImage"/>
        <dc:title/>
      </cc:Work>
    </rdf:RDF>
  </metadata>
  <g inkscape:label="Layer 1" inkscape:groupmode="layer" id="layer1">
    <rect style="fill:#ffffff;fill-opacity:1;stroke-width:0.242682" id="rect932" width="198.4375" height="79.375" x="0" y="0" inkscape:export-xdpi="96" inkscape:export-ydpi="96"/>
    <rect style="fill:none;fill-opacity:1;stroke-width:0.132291" id="rect928" width="16.933332" height="16.933332" x="0" y="134.40833" inkscape:export-xdpi="96" inkscape:export-ydpi="96"/>
    <rect style="fill:none;fill-opacity:1;stroke-width:0.264583;opacity:1" id="rect925" width="33.866665" height="33.866665" x="3.5527137e-15" y="89.958328" inkscape:export-xdpi="96" inkscape:export-ydpi="96"/>
    <g aria-label="OSArch" id="text895" style="font-style:normal;font-variant:normal;font-weight:normal;font-stretch:normal;font-size:21.9658px;line-height:1.25;font-family:Lato;-inkscape-font-specification:'Lato, Normal';font-variant-ligatures:normal;font-variant-caps:normal;font-variant-numeric:normal;font-variant-east-asian:normal;letter-spacing:0px;word-spacing:0px;fill:#000000;fill-opacity:1;stroke:none;stroke-width:0.549146" inkscape:export-xdpi="96" inkscape:export-ydpi="96">
      <path d="m 88.00839,27.249598 q 0,1.768246 -0.560128,3.250938 -0.560128,1.471708 -1.581537,2.53705 -1.02141,1.065341 -2.46017,1.658418 -1.427777,0.582093 -3.163075,0.582093 -1.735298,0 -3.163075,-0.582093 -1.427777,-0.593077 -2.449187,-1.658418 -1.021409,-1.065342 -1.581537,-2.53705 -0.560128,-1.482692 -0.560128,-3.250938 0,-1.768247 0.560128,-3.239956 0.560128,-1.482691 1.581537,-2.548033 1.02141,-1.076324 2.449187,-1.6694 1.427777,-0.593077 3.163075,-0.593077 1.735298,0 3.163075,0.593077 1.43876,0.593076 2.46017,1.6694 1.021409,1.065342 1.581537,2.548033 0.560128,1.471709 0.560128,3.239956 z m -2.185597,0 q 0,-1.449743 -0.395384,-2.602948 -0.395385,-1.153204 -1.120256,-1.943973 -0.724872,-0.801752 -1.757264,-1.230085 -1.032393,-0.428333 -2.306409,-0.428333 -1.263034,0 -2.295426,0.428333 -1.032393,0.428333 -1.768247,1.230085 -0.724871,0.790769 -1.120256,1.943973 -0.395384,1.153205 -0.395384,2.602948 0,1.449742 0.395384,2.602947 0.395385,1.142221 1.120256,1.943973 0.735854,0.790769 1.768247,1.219102 1.032392,0.41735 2.295426,0.41735 1.274016,0 2.306409,-0.41735 1.032392,-0.428333 1.757264,-1.219102 0.724871,-0.801752 1.120256,-1.943973 0.395384,-1.153205 0.395384,-2.602947 z" style="font-style:normal;font-variant:normal;font-weight:normal;font-stretch:normal;font-size:21.9658px;font-family:Lato;-inkscape-font-specification:'Lato, Normal';font-variant-ligatures:normal;font-variant-caps:normal;font-variant-numeric:normal;font-variant-east-asian:normal;fill:#e14658;stroke-width:0.549146;fill-opacity:1" id="path864"/>
      <path d="m 98.980272,21.835028 q -0.09885,0.164744 -0.208675,0.252607 -0.109829,0.07688 -0.285555,0.07688 -0.18671,0 -0.439316,-0.186709 -0.241624,-0.18671 -0.626026,-0.406368 -0.373418,-0.23064 -0.91158,-0.41735 -0.52718,-0.186709 -1.285,-0.186709 -0.713888,0 -1.263033,0.197692 -0.549145,0.186709 -0.922564,0.516196 -0.362435,0.329487 -0.549145,0.779786 -0.186709,0.439316 -0.186709,0.955513 0,0.658974 0.318504,1.09829 0.329487,0.428333 0.856666,0.735854 0.538162,0.307521 1.208119,0.538162 0.68094,0.219658 1.383846,0.461282 0.713888,0.241623 1.383845,0.549145 0.68094,0.296538 1.208119,0.75782 0.538162,0.461282 0.856666,1.131238 0.329487,0.669957 0.329487,1.647435 0,1.032393 -0.351453,1.943974 -0.351452,0.900597 -1.032392,1.570554 -0.669957,0.669957 -1.658418,1.054359 -0.977478,0.384401 -2.229529,0.384401 -1.526623,0 -2.789656,-0.549145 -1.252051,-0.560128 -2.141666,-1.504657 l 0.615043,-1.010427 q 0.08786,-0.120812 0.208675,-0.197692 0.131795,-0.08786 0.285555,-0.08786 0.230641,0 0.527179,0.252606 0.296539,0.241624 0.735855,0.538163 0.450299,0.296538 1.076324,0.549144 0.637008,0.241624 1.548589,0.241624 0.75782,0 1.350896,-0.208675 0.593077,-0.208675 0.999444,-0.582093 0.41735,-0.384402 0.637008,-0.911581 0.219658,-0.527179 0.219658,-1.17517 0,-0.713889 -0.329487,-1.164188 -0.318504,-0.461282 -0.845683,-0.768803 -0.527179,-0.307521 -1.208119,-0.516196 -0.669957,-0.219658 -1.383845,-0.439316 -0.702906,-0.230641 -1.383846,-0.527179 -0.669956,-0.296539 -1.197136,-0.768803 -0.527179,-0.472265 -0.856666,-1.17517 -0.318504,-0.713889 -0.318504,-1.757264 0,-0.834701 0.318504,-1.614487 0.329487,-0.779786 0.94453,-1.383845 0.615042,-0.60406 1.51564,-0.966495 0.91158,-0.362436 2.086751,-0.362436 1.317948,0 2.405255,0.41735 1.087307,0.41735 1.900041,1.208119 z" style="font-style:normal;font-variant:normal;font-weight:normal;font-stretch:normal;font-size:21.9658px;font-family:Lato;-inkscape-font-specification:'Lato, Normal';font-variant-ligatures:normal;font-variant-caps:normal;font-variant-numeric:normal;font-variant-east-asian:normal;fill:#e14658;stroke-width:0.549146;fill-opacity:1" id="path866"/>
      <path d="m 115.50951,35.113354 h -1.64743 q -0.28556,0 -0.46129,-0.142778 -0.17572,-0.142778 -0.26359,-0.362436 l -1.4717,-3.800083 h -7.06201 l -1.47171,3.800083 q -0.0769,0.197693 -0.26359,0.351453 -0.18671,0.153761 -0.46128,0.153761 h -1.64743 l 6.2932,-15.738495 h 2.16363 z m -10.31294,-5.842903 h 5.87585 l -2.47115,-6.40303 q -0.24163,-0.593077 -0.47227,-1.482692 -0.12081,0.450299 -0.24162,0.834701 -0.10983,0.373418 -0.21966,0.658974 z" style="font-style:normal;font-variant:normal;font-weight:normal;font-stretch:normal;font-size:21.9658px;font-family:Lato;-inkscape-font-specification:'Lato, Normal';font-variant-ligatures:normal;font-variant-caps:normal;font-variant-numeric:normal;font-variant-east-asian:normal;stroke-width:0.549146" id="path868"/>
      <path d="M 117.18986,35.113354 V 23.987676 h 1.12025 q 0.31851,0 0.43932,0.120812 0.12081,0.120812 0.16474,0.41735 l 0.1318,1.735299 q 0.57111,-1.164188 1.40581,-1.812179 0.84568,-0.658974 1.97692,-0.658974 0.46128,0 0.8347,0.109829 0.37342,0.09885 0.69192,0.285556 l -0.2526,1.460725 q -0.0769,0.274573 -0.34047,0.274573 -0.15376,0 -0.47227,-0.09885 -0.3185,-0.109829 -0.88961,-0.109829 -1.02141,0 -1.71334,0.593076 -0.68094,0.593077 -1.14222,1.724315 v 7.083971 z" style="font-style:normal;font-variant:normal;font-weight:normal;font-stretch:normal;font-size:21.9658px;font-family:Lato;-inkscape-font-specification:'Lato, Normal';font-variant-ligatures:normal;font-variant-caps:normal;font-variant-numeric:normal;font-variant-east-asian:normal;stroke-width:0.549146" id="path870"/>
      <path d="m 133.63126,25.964598 q -0.0879,0.120812 -0.17573,0.18671 -0.0879,0.0659 -0.25261,0.0659 -0.16474,0 -0.36243,-0.131795 -0.18671,-0.142777 -0.48325,-0.307521 -0.29654,-0.164743 -0.72487,-0.296538 -0.41735,-0.142778 -1.0324,-0.142778 -0.81273,0 -1.43876,0.296538 -0.62602,0.285556 -1.05435,0.834701 -0.41735,0.549145 -0.63701,1.328931 -0.20868,0.779785 -0.20868,1.746281 0,1.010426 0.23064,1.801195 0.23065,0.779786 0.648,1.317948 0.41735,0.527179 1.01042,0.812735 0.60406,0.274572 1.3509,0.274572 0.71389,0 1.17517,-0.164743 0.46128,-0.175727 0.7688,-0.384402 0.30752,-0.208675 0.50522,-0.373418 0.19769,-0.175727 0.39538,-0.175727 0.25261,0 0.37342,0.186709 l 0.54914,0.713889 q -0.72487,0.889615 -1.81218,1.306965 -1.0873,0.406367 -2.29542,0.406367 -1.04338,0 -1.94397,-0.384401 -0.88962,-0.384402 -1.54859,-1.109273 -0.65898,-0.735854 -1.04338,-1.801196 -0.37342,-1.065341 -0.37342,-2.42722 0,-1.241068 0.34047,-2.295426 0.35146,-1.054359 1.01043,-1.812179 0.66996,-0.768803 1.64743,-1.197136 0.97748,-0.428333 2.24052,-0.428333 1.16418,0 2.06478,0.384401 0.9006,0.373419 1.59252,1.065342 z" style="font-style:normal;font-variant:normal;font-weight:normal;font-stretch:normal;font-size:21.9658px;font-family:Lato;-inkscape-font-specification:'Lato, Normal';font-variant-ligatures:normal;font-variant-caps:normal;font-variant-numeric:normal;font-variant-east-asian:normal;stroke-width:0.549146" id="path872"/>
      <path d="M 136.30008,35.113354 V 18.935543 h 1.95495 v 6.545808 q 0.71389,-0.75782 1.58154,-1.208119 0.86765,-0.461282 1.99889,-0.461282 0.91158,0 1.6035,0.307521 0.70291,0.296538 1.16419,0.856666 0.47227,0.549145 0.71389,1.328931 0.24162,0.779786 0.24162,1.724315 v 7.083971 h -1.95495 v -7.083971 q 0,-1.263033 -0.5821,-1.954956 -0.57111,-0.702905 -1.75726,-0.702905 -0.86765,0 -1.62547,0.41735 -0.74684,0.41735 -1.38385,1.131239 v 8.193243 z" style="font-style:normal;font-variant:normal;font-weight:normal;font-stretch:normal;font-size:21.9658px;font-family:Lato;-inkscape-font-specification:'Lato, Normal';font-variant-ligatures:normal;font-variant-caps:normal;font-variant-numeric:normal;font-variant-east-asian:normal;stroke-width:0.549146" id="path874"/>
    </g>
    <g aria-label="Community" id="text873" style="font-style:normal;font-variant:normal;font-weight:300;font-stretch:normal;font-size:21.9658px;line-height:1.25;font-family:Lato;-inkscape-font-specification:'Lato, Light';font-variant-ligatures:normal;font-variant-caps:normal;font-variant-numeric:normal;font-variant-east-asian:normal;letter-spacing:0px;word-spacing:0px;fill:#000000;fill-opacity:1;stroke:none;stroke-width:0.549146" inkscape:export-xdpi="96" inkscape:export-ydpi="96">
      <path d="m 85.467756,58.404605 q 0.109829,0 0.186709,0.07688 l 0.439316,0.472264 q -0.483248,0.516197 -1.054358,0.933547 -0.571111,0.406367 -1.252051,0.702906 -0.669957,0.285555 -1.482691,0.439316 -0.801752,0.164743 -1.768247,0.164743 -1.614487,0 -2.965383,-0.560128 -1.339914,-0.571111 -2.306409,-1.603503 -0.955512,-1.043376 -1.493674,-2.515084 -0.538163,-1.471709 -0.538163,-3.272904 0,-1.768247 0.549145,-3.228973 0.560128,-1.460726 1.559572,-2.504101 1.010427,-1.054358 2.405255,-1.625469 1.405811,-0.582094 3.097178,-0.582094 0.845683,0 1.548589,0.131795 0.702905,0.120812 1.306965,0.362436 0.615042,0.230641 1.153204,0.582093 0.538162,0.351453 1.054359,0.812735 l -0.34047,0.49423 q -0.08786,0.131795 -0.274573,0.131795 -0.09885,0 -0.252606,-0.109829 -0.153761,-0.120812 -0.395385,-0.285555 -0.230641,-0.175727 -0.571111,-0.373419 -0.329487,-0.208675 -0.790768,-0.373418 -0.461282,-0.175727 -1.065342,-0.285556 -0.604059,-0.120812 -1.372862,-0.120812 -1.416794,0 -2.602947,0.494231 -1.186153,0.483247 -2.04282,1.394828 -0.856666,0.900598 -1.339913,2.19658 -0.472265,1.284999 -0.472265,2.888503 0,1.647435 0.472265,2.943417 0.472264,1.295982 1.306965,2.19658 0.8347,0.889615 1.965939,1.372862 1.142221,0.472265 2.471152,0.472265 0.834701,0 1.482692,-0.109829 0.658974,-0.109829 1.208119,-0.329487 0.549145,-0.219658 1.021409,-0.538162 0.472265,-0.318504 0.933547,-0.746837 0.05491,-0.04393 0.09885,-0.0659 0.05491,-0.03295 0.120812,-0.03295 z" style="font-style:normal;font-variant:normal;font-weight:300;font-stretch:normal;font-size:21.9658px;font-family:Lato;-inkscape-font-specification:'Lato, Light';font-variant-ligatures:normal;font-variant-caps:normal;font-variant-numeric:normal;font-variant-east-asian:normal;stroke-width:0.549146" id="path877"/>
      <path d="m 93.265589,49.914824 q 1.17517,0 2.097734,0.406367 0.933546,0.395385 1.570554,1.131239 0.637009,0.735854 0.966496,1.77923 0.340469,1.032392 0.340469,2.317392 0,1.284999 -0.340469,2.317391 -0.329487,1.032393 -0.966496,1.768247 -0.637008,0.735855 -1.570554,1.131239 -0.922564,0.395384 -2.097734,0.395384 -1.17517,0 -2.108717,-0.395384 -0.922563,-0.395384 -1.570555,-1.131239 -0.637008,-0.735854 -0.977478,-1.768247 -0.329487,-1.032392 -0.329487,-2.317391 0,-1.285 0.329487,-2.317392 0.34047,-1.043376 0.977478,-1.77923 0.647992,-0.735854 1.570555,-1.131239 0.933547,-0.406367 2.108717,-0.406367 z m 0,10.422772 q 0.977478,0 1.702349,-0.329487 0.735855,-0.34047 1.219102,-0.966495 0.494231,-0.626026 0.735854,-1.504658 0.241624,-0.889614 0.241624,-1.987904 0,-1.087307 -0.241624,-1.976922 -0.241623,-0.889615 -0.735854,-1.515641 -0.483247,-0.637008 -1.219102,-0.977478 -0.724871,-0.340469 -1.702349,-0.340469 -0.977478,0 -1.713332,0.340469 -0.724872,0.34047 -1.219102,0.977478 -0.483248,0.626026 -0.735855,1.515641 -0.241623,0.889615 -0.241623,1.976922 0,1.09829 0.241623,1.987904 0.252607,0.878632 0.735855,1.504658 0.49423,0.626025 1.219102,0.966495 0.735854,0.329487 1.713332,0.329487 z" style="font-style:normal;font-variant:normal;font-weight:300;font-stretch:normal;font-size:21.9658px;font-family:Lato;-inkscape-font-specification:'Lato, Light';font-variant-ligatures:normal;font-variant-caps:normal;font-variant-numeric:normal;font-variant-east-asian:normal;stroke-width:0.549146" id="path879"/>
      <path d="M 100.98653,61.018536 V 50.09055 h 0.57111 q 0.28556,0 0.32949,0.274573 l 0.0988,1.581537 q 0.3185,-0.450298 0.68094,-0.823717 0.36243,-0.373419 0.7688,-0.637008 0.41735,-0.274573 0.87863,-0.41735 0.47227,-0.153761 0.98846,-0.153761 1.19714,0 1.91103,0.702906 0.71389,0.691922 0.96649,1.93299 0.1977,-0.68094 0.54915,-1.17517 0.36243,-0.494231 0.82372,-0.812735 0.46128,-0.329487 0.99944,-0.483247 0.54914,-0.164744 1.12026,-0.164744 0.81273,0 1.46072,0.274573 0.64799,0.263589 1.09829,0.790768 0.46128,0.52718 0.70291,1.295982 0.24162,0.768803 0.24162,1.757264 v 6.985125 h -1.05436 v -6.985125 q 0,-1.603503 -0.69192,-2.438203 -0.69192,-0.845684 -1.97692,-0.845684 -0.57111,0 -1.09829,0.208676 -0.5162,0.208675 -0.92257,0.626025 -0.39538,0.406367 -0.637,1.021409 -0.23065,0.615043 -0.23065,1.427777 v 6.985125 h -1.04337 v -6.985125 q 0,-1.59252 -0.63701,-2.438203 -0.63701,-0.845684 -1.85611,-0.845684 -0.88961,0 -1.64743,0.538163 -0.75782,0.527179 -1.3509,1.471708 v 8.259141 z" style="font-style:normal;font-variant:normal;font-weight:300;font-stretch:normal;font-size:21.9658px;font-family:Lato;-inkscape-font-specification:'Lato, Light';font-variant-ligatures:normal;font-variant-caps:normal;font-variant-numeric:normal;font-variant-east-asian:normal;stroke-width:0.549146" id="path881"/>
      <path d="M 118.46032,61.018536 V 50.09055 h 0.57111 q 0.28556,0 0.32949,0.274573 l 0.0988,1.581537 q 0.31851,-0.450298 0.68094,-0.823717 0.36244,-0.373419 0.76881,-0.637008 0.41735,-0.274573 0.87863,-0.41735 0.47226,-0.153761 0.98846,-0.153761 1.19714,0 1.91103,0.702906 0.71388,0.691922 0.96649,1.93299 0.19769,-0.68094 0.54915,-1.17517 0.36243,-0.494231 0.82371,-0.812735 0.46128,-0.329487 0.99945,-0.483247 0.54914,-0.164744 1.12025,-0.164744 0.81274,0 1.46073,0.274573 0.64799,0.263589 1.09829,0.790768 0.46128,0.52718 0.7029,1.295982 0.24163,0.768803 0.24163,1.757264 v 6.985125 h -1.05436 v -6.985125 q 0,-1.603503 -0.69192,-2.438203 -0.69193,-0.845684 -1.97693,-0.845684 -0.57111,0 -1.09829,0.208676 -0.51619,0.208675 -0.92256,0.626025 -0.39538,0.406367 -0.63701,1.021409 -0.23064,0.615043 -0.23064,1.427777 v 6.985125 h -1.04337 v -6.985125 q 0,-1.59252 -0.63701,-2.438203 -0.63701,-0.845684 -1.85611,-0.845684 -0.88962,0 -1.64744,0.538163 -0.75782,0.527179 -1.35089,1.471708 v 8.259141 z" style="font-style:normal;font-variant:normal;font-weight:300;font-stretch:normal;font-size:21.9658px;font-family:Lato;-inkscape-font-specification:'Lato, Light';font-variant-ligatures:normal;font-variant-caps:normal;font-variant-numeric:normal;font-variant-east-asian:normal;stroke-width:0.549146" id="path883"/>
      <path d="m 136.7139,50.09055 v 6.985125 q 0,1.537606 0.70291,2.416238 0.7029,0.867649 2.14166,0.867649 1.06534,0 1.98791,-0.538162 0.92256,-0.549145 1.65841,-1.515641 V 50.09055 h 1.05436 v 10.927986 h -0.58209 q -0.30752,0 -0.31851,-0.285556 l -0.0988,-1.625469 q -0.75782,0.944529 -1.75727,1.51564 -0.98846,0.571111 -2.20756,0.571111 -0.91158,0 -1.59252,-0.285555 -0.68094,-0.285556 -1.13124,-0.823718 -0.4503,-0.538162 -0.68094,-1.295982 -0.23064,-0.75782 -0.23064,-1.713332 V 50.09055 Z" style="font-style:normal;font-variant:normal;font-weight:300;font-stretch:normal;font-size:21.9658px;font-family:Lato;-inkscape-font-specification:'Lato, Light';font-variant-ligatures:normal;font-variant-caps:normal;font-variant-numeric:normal;font-variant-east-asian:normal;stroke-width:0.549146" id="path885"/>
      <path d="M 147.81758,61.018536 V 50.09055 h 0.57111 q 0.28555,0 0.32948,0.274573 l 0.0989,1.647435 q 0.74684,-0.944529 1.7353,-1.51564 0.99944,-0.582094 2.21854,-0.582094 0.9006,0 1.58154,0.285555 0.69192,0.285556 1.14222,0.823718 0.4503,0.538162 0.68094,1.295982 0.23064,0.75782 0.23064,1.713332 v 6.985125 h -1.04337 v -6.985125 q 0,-1.537606 -0.70291,-2.405255 -0.7029,-0.878632 -2.15265,-0.878632 -1.07632,0 -1.99888,0.560128 -0.92257,0.549145 -1.64744,1.51564 v 8.193244 z" style="font-style:normal;font-variant:normal;font-weight:300;font-stretch:normal;font-size:21.9658px;font-family:Lato;-inkscape-font-specification:'Lato, Light';font-variant-ligatures:normal;font-variant-caps:normal;font-variant-numeric:normal;font-variant-east-asian:normal;stroke-width:0.549146" id="path887"/>
      <path d="m 161.05194,50.09055 v 10.927986 h -1.04338 V 50.09055 Z m 0.46128,-3.767134 q 0,0.197692 -0.0879,0.373418 -0.0769,0.164744 -0.20868,0.296539 -0.13179,0.131795 -0.30752,0.208675 -0.17572,0.07688 -0.37342,0.07688 -0.19769,0 -0.37341,-0.07688 -0.17573,-0.07688 -0.30753,-0.208675 -0.13179,-0.131795 -0.20867,-0.296539 -0.0769,-0.175726 -0.0769,-0.373418 0,-0.197692 0.0769,-0.373419 0.0769,-0.186709 0.20867,-0.318504 0.1318,-0.131795 0.30753,-0.208675 0.17572,-0.07688 0.37341,-0.07688 0.1977,0 0.37342,0.07688 0.17573,0.07688 0.30752,0.208675 0.1318,0.131795 0.20868,0.318504 0.0879,0.175727 0.0879,0.373419 z" style="font-style:normal;font-variant:normal;font-weight:300;font-stretch:normal;font-size:21.9658px;font-family:Lato;-inkscape-font-specification:'Lato, Light';font-variant-ligatures:normal;font-variant-caps:normal;font-variant-numeric:normal;font-variant-east-asian:normal;stroke-width:0.549146" id="path889"/>
      <path d="m 167.90525,61.194262 q -1.10927,0 -1.7353,-0.615042 -0.61504,-0.615043 -0.61504,-1.900042 v -7.468372 h -1.57055 q -0.12082,0 -0.1977,-0.0659 -0.0769,-0.0659 -0.0769,-0.186709 v -0.406368 l 1.8671,-0.131795 0.26359,-3.909912 q 0.011,-0.09885 0.0769,-0.175726 0.0769,-0.07688 0.19769,-0.07688 h 0.49423 v 4.173502 h 3.43765 v 0.779786 h -3.43765 v 7.413457 q 0,0.450299 0.10983,0.779786 0.12081,0.318504 0.3185,0.52718 0.20868,0.208675 0.48325,0.307521 0.27457,0.09885 0.59308,0.09885 0.39538,0 0.68094,-0.109829 0.28555,-0.120812 0.49423,-0.252607 0.20867,-0.142778 0.34047,-0.252607 0.13179,-0.120811 0.20867,-0.120811 0.0879,0 0.17573,0.109829 l 0.28555,0.461281 q -0.41735,0.461282 -1.06534,0.746838 -0.63701,0.274572 -1.32893,0.274572 z" style="font-style:normal;font-variant:normal;font-weight:300;font-stretch:normal;font-size:21.9658px;font-family:Lato;-inkscape-font-specification:'Lato, Light';font-variant-ligatures:normal;font-variant-caps:normal;font-variant-numeric:normal;font-variant-east-asian:normal;stroke-width:0.549146" id="path891"/>
      <path d="m 175.13197,64.533064 q -0.0659,0.15376 -0.17573,0.252606 -0.0988,0.09885 -0.29653,0.09885 h -0.74684 l 1.92201,-4.272348 -4.6238,-10.521618 h 0.86764 q 0.16475,0 0.25261,0.08786 0.0988,0.07688 0.14278,0.175726 l 3.67927,8.500764 q 0.0659,0.164744 0.10983,0.34047 0.0549,0.164744 0.0989,0.34047 0.0549,-0.175726 0.10982,-0.34047 0.0659,-0.175726 0.1318,-0.34047 l 3.63534,-8.500764 q 0.0549,-0.120812 0.15376,-0.186709 0.0988,-0.07688 0.21966,-0.07688 h 0.80175 z" style="font-style:normal;font-variant:normal;font-weight:300;font-stretch:normal;font-size:21.9658px;font-family:Lato;-inkscape-font-specification:'Lato, Light';font-variant-ligatures:normal;font-variant-caps:normal;font-variant-numeric:normal;font-variant-east-asian:normal;stroke-width:0.549146" id="path893"/>
    </g>
    <path id="path871" style="fill:#e14658;fill-opacity:1;stroke:none;stroke-width:0.300097;stop-color:#000000" d="m 8.458673,135.20208 a 7.6729167,7.6729167 0 0 0 -7.66492302,7.67292 7.6729167,7.6729167 0 0 0 7.67291632,7.67291 7.6729167,7.6729167 0 0 0 7.6729167,-7.67291 7.6729167,7.6729167 0 0 0 -7.6729167,-7.67292 7.6729167,7.6729167 0 0 0 -0.00804,0 z m -0.7321239,1.09978 c 0.3899642,0.0202 0.7158088,0.22567 1.0049384,0.44439 0.3855036,0.29164 1.0353294,0.86257 1.3534175,1.17866 0.409043,0.40014 0.779168,0.80709 1.124295,1.26069 0.761303,1.00064 1.094353,1.57174 0.761964,1.86601 -0.33239,0.29429 -0.625166,0.34368 -0.983094,0.081 -0.417109,-0.30607 -0.789089,-0.85827 -1.9747107,-2.15055 -0.2623167,-0.28128 -0.5386865,-0.6293 -0.8765239,-0.97297 -0.3378342,-0.34367 -0.5696888,-0.34046 -0.740116,-0.12202 -0.1704251,0.21843 -0.2738704,0.32084 -0.5999798,0.98789 -0.3261065,0.66705 -0.830094,1.94567 -1.2521761,3.03612 -0.4220833,1.09044 -0.7868833,2.14706 -1.0465015,3.21464 -0.011321,0.0468 -0.025335,0.0882 -0.037831,0.13427 0.791583,-0.37585 1.3394689,-0.67183 2.6034637,-1.3257 0.8616769,-0.44707 1.9969848,-1.04509 3.1000703,-1.5314 0.364841,-0.16245 0.882305,-0.36064 1.223403,-0.46037 0.3411,-0.0997 0.772699,-0.11987 1.252711,0.12468 0.480012,0.24458 0.742032,0.98803 0.947925,1.68166 0.205891,0.69362 0.532161,2.10118 0.417215,2.70949 -0.0963,0.62516 -0.364161,0.69978 -0.874393,0.89412 -0.380083,0.13314 -0.747474,0.20896 -1.088593,0.26908 -1.024476,0.18657 -2.05022,0.28291 -3.0633061,0.34474 -1.0627642,0.0666 -2.1181889,0.0946 -3.1768008,0.0304 -0.3918387,-0.0223 -0.8010309,-0.0602 -1.1136381,-0.10023 -0.3126101,-0.04 -0.8148057,-0.21011 -1.0752746,-0.54989 -0.2604699,-0.33977 -0.2852445,-0.78482 -0.2301883,-1.1147 0.0034,-0.0206 0.00773,-0.0556 0.011188,-0.0778 -0.085448,0.0205 -0.1688949,0.0364 -0.2520345,0.0474 -0.4976389,0.0801 -0.5589024,-0.14949 -0.5328431,-0.20407 0.026066,-0.0545 0.1235901,-0.0891 0.4811577,-0.15026 0.1415014,-0.0241 0.2522448,-0.0632 0.3644617,-0.11084 0.039171,-0.27715 0.082634,-0.5684 0.1369419,-0.80885 0.2694653,-1.21228 0.6393775,-2.36628 0.9777634,-3.35157 0.050741,-0.14825 0.1012762,-0.29363 0.1518589,-0.43747 0.3908922,-1.11147 0.7447654,-2.0033 1.1019155,-2.79955 0.1855989,-0.41681 0.3954919,-0.87533 0.5328431,-1.13228 0.1373481,-0.25696 0.3772156,-0.69293 0.9580486,-0.85681 0.1452094,-0.0409 0.2824297,-0.0546 0.4124198,-0.0479 z m 4.1806719,6.18682 c -0.140653,-0.007 -0.257865,0.0254 -0.360732,0.0512 -0.405062,0.0929 -0.799664,0.23909 -1.5766783,0.53817 -0.7770154,0.2991 -1.8355912,0.83354 -2.9535403,1.40298 -1.0956299,0.55807 -1.7681968,0.94073 -2.7126956,1.34596 -0.035831,0.13843 -0.065207,0.27176 -0.069806,0.39324 -0.011827,0.3128 0.00103,0.45946 0.088985,0.56747 0.087913,0.10802 0.3244535,0.16387 0.5008715,0.20088 0.176419,0.037 0.6499619,0.08 1.0310492,0.10497 0.9932807,0.0635 2.0023652,0.0459 3.0680999,-0.006 0.9888851,-0.0482 1.9853766,-0.12194 2.9588666,-0.30586 0.973491,-0.1839 1.207932,-0.22425 1.329441,-0.60051 0.121509,-0.37626 -0.02301,-1.08568 -0.139605,-1.7328 -0.139283,-0.73732 -0.272548,-1.5076 -0.663919,-1.77276 -0.195688,-0.13258 -0.359685,-0.17978 -0.50034,-0.18703 z" inkscape:export-xdpi="96" inkscape:export-ydpi="96"/>
    <path id="path2855" style="display:inline;mix-blend-mode:normal;fill:#e14658;fill-opacity:1;fill-rule:nonzero;stroke:none;stroke-width:0.265588;stroke-opacity:1" d="m 4.008613,116.29174 c 0.05594,-0.0181 0.138776,0.0532 0.159496,0.0754 0.02068,0.0222 0.09623,0.1008 0.170351,0.17856 l 2.71e-4,4e-5 v 0 c 0,0 0.341242,0.36718 0.632406,0.65594 0.544068,0.53958 1.082174,1.13417 2.809915,2.44044 0.803539,0.46492 3.88374,2.86246 9.091237,2.7675 8.596308,-0.21426 15.473699,-7.22781 15.286887,-15.57661 C 31.93307,96.728178 22.43655,91.362778 16.872289,91.833093 10.7556,91.547456 1.926205,96.911335 1.749291,106.95938 c -0.03678,2.08906 0.274145,2.87818 0.638378,4.38727 v 1e-5 c 0.258049,1.02957 0.68149,2.23162 1.076307,2.59608 0.394819,0.36445 0.80925,0.33217 1.081847,0.29689 0.83848,-0.11784 1.668536,-0.41338 2.504681,-0.72252 2.446111,-0.91102 4.827286,-2.08282 7.151698,-3.20377 2.473188,-1.19355 4.798653,-2.3628 7.263065,-3.40766 0.883028,-0.37533 1.774302,-0.73824 2.401299,-0.90552 0.626996,-0.16727 0.959901,-0.23987 1.24744,-0.26266 0.287544,-0.0228 0.573723,0.003 1.082332,0.32265 0.50861,0.31947 0.944418,1.05402 1.245797,1.74907 0.402474,0.89065 0.659735,1.82398 0.851385,2.73948 0.195181,0.92646 0.325384,1.85615 0.395366,2.77957 0.05224,0.66068 0.09165,1.33712 0.0043,2.02591 -0.08593,0.32153 -0.262996,0.50468 -0.416184,0.56898 -0.2464,0.1606 -0.501131,0.26345 -0.737008,0.34464 -0.781391,0.27611 -1.583939,0.43589 -2.350917,0.57419 -2.395779,0.43523 -4.795139,0.64952 -7.012727,0.7904 -0.275501,0.0176 -0.549373,0.034 -0.822013,0.0493 -2.316252,0.12943 -4.415144,0.16415 -6.450203,0.0554 -0.92147,-0.0485 -1.802399,-0.12168 -2.676288,-0.30505 -0.311398,-0.0645 -0.627859,-0.14759 -0.940019,-0.2786 -0.212086,-0.0787 -0.450092,-0.21515 -0.654929,-0.45227 -0.195734,-0.27221 -0.266983,-0.55206 -0.285266,-0.77583 -0.04905,-0.3615 -0.04462,-0.71199 -0.0256,-1.03695 0.05594,-1.01088 0.240411,-1.99876 0.423063,-2.88453 0.590923,-2.87953 1.437046,-5.67163 2.098696,-7.76039 0.962148,-3.04172 1.816972,-5.414726 2.726491,-7.549541 0.395822,-0.93296 0.788641,-1.790541 1.280173,-2.62163 0.167163,-0.28685 0.363699,-0.586531 0.616622,-0.882729 0.106978,-0.183225 0.53891,-0.576567 0.993538,-0.707225 0.454621,-0.130652 1.000074,0.032 1.461593,0.253034 0.461521,0.221052 1.046648,0.563984 1.452105,0.878845 1.152462,0.87909 2.137268,1.903655 3.081262,2.996726 0.07589,0.08729 0.15184,0.175336 0.227853,0.264136 3.712288,4.336864 4.886221,6.804954 4.349575,7.244884 -0.309415,0.25365 -0.777957,0.39599 -1.436591,-0.27924 -0.655686,-0.67223 -1.441963,-2.26095 -4.647988,-5.898407 -0.738024,-0.831668 -1.718368,-1.924431 -2.790431,-2.773723 -0.341329,-0.264875 -0.882141,-0.596561 -1.012135,-0.664456 -0.129994,-0.06789 -0.30296,-0.01508 -0.361981,0.03477 -0.05902,0.04985 -0.215933,0.270321 -0.378715,0.515366 -0.458393,0.701139 -0.848553,1.47053 -1.278479,2.360586 -0.246985,0.513304 -0.492714,1.045101 -0.738246,1.598269 -0.774327,1.744535 -1.493852,3.603145 -2.228093,5.680605 -0.824283,2.33659 -1.660825,4.91254 -2.25624,7.56334 -0.201199,0.90296 -0.386824,1.81059 -0.446609,2.70374 -0.01809,0.29864 -0.113083,0.71145 0.09291,1.00389 0.205994,0.29243 0.635846,0.33155 0.911292,0.39536 h 7e-6 c 0.793255,0.17896 1.632154,0.25134 2.504824,0.30725 2.348861,0.14632 4.726855,0.0785 7.143778,-0.0697 2.330795,-0.14458 4.635606,-0.3577 6.893619,-0.76859 0.771723,-0.1424 1.511139,-0.28737 2.190314,-0.53138 0.212997,-0.0805 0.391607,-0.14563 0.4728,-0.39112 0.08119,-0.24548 0.03803,-0.85901 -0.0189,-1.62709 -0.05692,-0.76809 -0.183833,-1.65204 -0.37136,-2.53154 -0.187526,-0.8795 -0.42379,-1.73177 -0.77992,-2.50831 -0.312929,-0.63111 -0.618462,-1.20367 -1.041656,-1.33308 -0.423187,-0.12941 -0.721076,-0.0525 -1.005285,0.0202 -0.867631,0.22901 -1.729927,0.58748 -2.573361,0.94509 -1.773354,0.75531 -3.538351,1.60953 -5.113846,2.37848 -0.684154,0.33393 -1.395341,0.68257 -2.095914,1.02166 -2.271643,1.10085 -4.71432,2.30346 -7.241347,3.24559 -0.842339,0.31763 -1.747807,0.63257 -2.393722,0.73048 -0.645919,0.0979 -1.015651,0.15331 -1.407028,0.0602 -0.31873,-0.0758 -0.926051,-0.81293 -1.299587,-1.46681 -1.030348,-2.16302 -1.53136302,-4.44139 -1.53136302,-6.94973 0,-8.913648 7.22593902,-16.139589 16.13958202,-16.139589 8.913643,0 16.139584,7.225941 16.139584,16.139589 0,8.91365 -7.225941,16.13958 -16.139584,16.13958 -4.456824,0 -8.491716,-1.80648 -11.412408,-4.72718 -0.510977,-0.51097 -0.98785,-1.05605 -1.426914,-1.63152 -0.05734,-0.0752 -0.114021,-0.15082 -0.170056,-0.227 -0.02043,-0.0701 0.029,-0.13567 0.08464,-0.15367 z" sodipodi:nodetypes="acccssccscssssccccsscccccccccccccccccccccssccsssccssccscccsssccccssscsccsccsscssssssca"/>
    <path id="path1568" style="display:inline;mix-blend-mode:normal;fill:#000000;fill-opacity:1;fill-rule:nonzero;stroke:none;stroke-width:0.265589;stroke-opacity:1" d="m 19.463647,55.414843 c 0.09043,-0.0293 0.224342,0.086 0.257837,0.12189 0.03343,0.0359 0.155563,0.16295 0.275385,0.28865 l 4.38e-4,7e-5 v 0 c 0,0 0.551643,0.59357 1.022331,1.06037 0.879526,0.87228 1.749414,1.83347 4.542435,3.94516 1.29898,0.75157 6.278353,4.62737 14.696656,4.47386 13.896564,-0.34636 25.014374,-11.68428 24.712384,-25.18074 -0.36552,-16.335214 -15.71735,-25.008779 -24.712384,-24.248472 -9.888079,-0.461758 -24.161448,8.20935 -24.447442,24.452762 -0.05946,3.37712 0.443175,4.65279 1.031985,7.09235 v 10e-6 c 0.417155,1.66438 1.101679,3.60758 1.739929,4.19676 0.638254,0.58916 1.308213,0.53697 1.748886,0.47994 1.355465,-0.1905 2.697311,-0.66826 4.049002,-1.16801 3.954319,-1.47273 7.803664,-3.36703 11.561247,-5.17913 3.998091,-1.92946 7.757377,-3.81964 11.741281,-5.50873 1.427476,-0.60675 2.868286,-1.19342 3.881876,-1.46384 1.01359,-0.2704 1.55175,-0.38777 2.01658,-0.42461 0.46484,-0.0369 0.92747,0.005 1.74967,0.52159 0.8222,0.51645 1.52672,1.7039 2.01392,2.8275 0.65063,1.4398 1.06651,2.9486 1.37633,4.42857 0.31552,1.49769 0.52601,3.0006 0.63914,4.49338 0.0845,1.06804 0.14816,2.16155 0.007,3.27503 -0.13891,0.51978 -0.42515,0.81586 -0.67279,0.9198 -0.39833,0.25962 -0.81012,0.42589 -1.19143,0.55714 -1.26318,0.44635 -2.56056,0.70465 -3.80043,0.92822 -3.87296,0.70358 -7.751699,1.05 -11.336593,1.27774 -0.445368,0.0284 -0.888102,0.055 -1.328845,0.0797 -3.744392,0.20923 -7.137406,0.26536 -10.427229,0.0896 -1.489624,-0.0784 -2.913711,-0.1967 -4.326417,-0.49313 -0.503398,-0.10427 -1.014981,-0.23859 -1.51961,-0.45038 -0.342853,-0.12722 -0.727607,-0.34781 -1.058741,-0.73113 -0.316419,-0.44004 -0.431598,-0.89244 -0.461154,-1.25418 -0.07929,-0.58439 -0.07213,-1.15099 -0.04138,-1.67631 0.09043,-1.63416 0.388642,-3.23114 0.683912,-4.66306 0.955271,-4.65497 2.323091,-9.1686 3.392697,-12.54524 1.555384,-4.91716 2.93727,-8.75331 4.407574,-12.204402 0.639876,-1.508198 1.274897,-2.89454 2.069494,-4.238058 0.270232,-0.463714 0.587947,-0.948169 0.996815,-1.426982 0.172938,-0.296205 0.871188,-0.932068 1.606128,-1.143289 0.734928,-0.211206 1.616693,0.05173 2.362773,0.409041 0.746083,0.35736 1.691984,0.911732 2.347435,1.420726 1.86304,1.421114 3.455051,3.077391 4.981087,4.844435 0.122682,0.141127 0.245461,0.283434 0.368341,0.426986 6.001183,7.010873 7.898933,11.000723 7.031403,11.711893 -0.50019,0.41005 -1.25762,0.64015 -2.32235,-0.45141 -1.05997,-1.08671 -2.33104,-3.65499 -7.513815,-9.53521 -1.19307,-1.344457 -2.777868,-3.110984 -4.510937,-4.483924 -0.551784,-0.428198 -1.426046,-0.964399 -1.636191,-1.074149 -0.210145,-0.109765 -0.489757,-0.02441 -0.585169,0.05626 -0.09541,0.08051 -0.349072,0.436992 -0.612221,0.833134 -0.741026,1.133428 -1.371749,2.37722 -2.066756,3.816052 -0.399269,0.829797 -0.796508,1.689477 -1.193429,2.583717 -1.251757,2.82018 -2.414922,5.82476 -3.601877,9.18312 -1.332514,3.77727 -2.684846,7.94149 -3.647378,12.2267 -0.325253,1.4597 -0.62533,2.92695 -0.721976,4.3708 -0.02924,0.48277 -0.182807,1.15011 0.150195,1.62286 0.333005,0.47273 1.027892,0.53597 1.473171,0.63913 h 1.2e-5 c 1.282355,0.2893 2.638497,0.40631 4.049232,0.49669 3.797108,0.23654 7.64131,0.1269 11.548445,-0.11267 3.767902,-0.23373 7.493794,-0.57825 11.144044,-1.24249 1.24754,-0.2302 2.44286,-0.46455 3.5408,-0.85901 0.34433,-0.13014 0.63306,-0.23542 0.76432,-0.63228 0.13125,-0.39683 0.0615,-1.38865 -0.0306,-2.63031 -0.092,-1.24167 -0.29718,-2.67064 -0.60033,-4.09242 -0.30315,-1.42178 -0.68509,-2.79953 -1.2608,-4.05487 -0.50587,-1.02023 -0.99979,-1.94582 -1.68391,-2.15502 -0.68411,-0.2092 -1.16567,-0.0849 -1.62512,0.0327 -1.40259,0.37021 -2.79655,0.9497 -4.16003,1.5278 -2.866749,1.22102 -5.719997,2.60193 -8.266901,3.84499 -1.105985,0.53982 -2.255672,1.10343 -3.3882,1.65159 -3.672278,1.77961 -7.621046,3.72371 -11.706172,5.24674 -1.361703,0.51347 -2.825459,1.02259 -3.869628,1.18087 -1.044176,0.15826 -1.641875,0.24784 -2.274564,0.0973 -0.515251,-0.12254 -1.49703,-1.31416 -2.100879,-2.37121 -1.665633,-3.49668 -2.475561,-7.17983 -2.475561,-11.23475 0,-14.40957 11.681264,-26.090833 26.090825,-26.090833 14.40956,0 26.09083,11.681263 26.09083,26.090833 0,14.40957 -11.68127,26.09082 -26.09083,26.09082 -7.204785,0 -13.727485,-2.92031 -18.448999,-7.64183 -0.826032,-0.82602 -1.596933,-1.70719 -2.306712,-2.63747 -0.0927,-0.12157 -0.184324,-0.24382 -0.274908,-0.36697 -0.03303,-0.11332 0.04688,-0.21932 0.136827,-0.24842 z" sodipodi:nodetypes="acccssccscssssccccsscccccccccccccccccccccssccsssccssccscccsssccccssscsccsccsscssssssca"/>
  </g>
</svg>